<svg width="346" height="314" viewBox="0 0 346 314" fill="none" xmlns="http://www.w3.org/2000/svg">
<path d="M48.4845 26.1734L46.7628 12.7474L49.867 24.1039V4.82588L51.9279 19.6343L53.9974 9.64327V19.2866L55.0321 0L56.0583 19.6343L59.8495 11.0173L58.1278 21.6953L62.2582 17.2171L56.4061 27.8951L48.4845 26.1734Z" fill="#C53F3F"/>
<path opacity="0.7" d="M48.4845 26.1734L46.7628 12.7474L49.867 24.1039V4.82588L51.9279 19.6343L53.9974 9.64327V19.2866L55.0321 0L56.0583 19.6343L59.8495 11.0173L58.1278 21.6953L62.2582 17.2171L56.4061 27.8951L48.4845 26.1734Z" fill="white"/>
<path d="M59.4509 40.6425H47.9671L46.5338 23.2643H60.8842L59.4509 40.6425Z" fill="#C53F3F"/>
<path d="M101.722 23.6799L109.202 41.0242H98.3208L94.5806 33.8829L101.722 23.6799Z" fill="#C53F3F"/>
<path d="M106.098 12.4591H86.7099L75.2431 41.372H94.623L106.098 12.4591Z" fill="#C53F3F"/>
<path d="M102.103 16.1993H87.7361L79.2293 37.6232H93.6052L102.103 16.1993Z" fill="white"/>
<path d="M313.34 46.4099H37.5096V267.493H313.34V46.4099Z" fill="#263238"/>
<path opacity="0.75" d="M313.34 46.4099H37.5096V267.493H313.34V46.4099Z" fill="white"/>
<path d="M58.0599 50.43H45.2107V89.5035H58.0599V50.43Z" fill="#C53F3F"/>
<path d="M57.1694 52.7285H46.0503V55.1287H57.1694V52.7285Z" fill="white"/>
<path d="M57.1694 84.0585H46.0503V86.4587H57.1694V84.0585Z" fill="white"/>
<path d="M71.7318 50.43H58.8826V89.5035H71.7318V50.43Z" fill="#C53F3F"/>
<path d="M70.8413 52.7285H59.7223V55.1287H70.8413V52.7285Z" fill="white"/>
<path d="M70.8413 84.0585H59.7223V86.4587H70.8413V84.0585Z" fill="white"/>
<path d="M85.4037 50.43H72.5545V89.5035H85.4037V50.43Z" fill="#C53F3F"/>
<path d="M84.5132 52.7285H73.3942V55.1287H84.5132V52.7285Z" fill="white"/>
<path d="M84.5132 84.0585H73.3942V86.4587H84.5132V84.0585Z" fill="white"/>
<path d="M99.0757 50.43H86.2264V89.5035H99.0757V50.43Z" fill="#C53F3F"/>
<path d="M98.1851 52.7285H87.0661V55.1287H98.1851V52.7285Z" fill="white"/>
<path d="M98.1851 84.0585H87.0661V86.4587H98.1851V84.0585Z" fill="white"/>
<path d="M112.739 50.43H99.8899V89.5035H112.739V50.43Z" fill="#C53F3F"/>
<path d="M111.849 52.7285H100.73V55.1287H111.849V52.7285Z" fill="white"/>
<path d="M111.849 84.0585H100.73V86.4587H111.849V84.0585Z" fill="white"/>
<path d="M126.411 50.43H113.562V89.5035H126.411V50.43Z" fill="#C53F3F"/>
<path d="M125.52 52.7285H114.401V55.1287H125.52V52.7285Z" fill="white"/>
<path d="M125.52 84.0585H114.401V86.4587H125.52V84.0585Z" fill="white"/>
<path d="M131.619 91.5051H118.769V130.579H131.619V91.5051Z" fill="#C53F3F"/>
<path d="M130.728 93.795H119.609V96.1953H130.728V93.795Z" fill="white"/>
<path d="M130.728 125.134H119.609V127.534H130.728V125.134Z" fill="white"/>
<path d="M145.282 91.5051H132.433V130.579H145.282V91.5051Z" fill="#C53F3F"/>
<path d="M144.4 93.795H133.281V96.1953H144.4V93.795Z" fill="white"/>
<path d="M144.4 125.134H133.281V127.534H144.4V125.134Z" fill="white"/>
<path d="M158.954 91.5051H146.105V130.579H158.954V91.5051Z" fill="#C53F3F"/>
<path d="M158.063 93.795H146.944V96.1953H158.063V93.795Z" fill="white"/>
<path d="M158.063 125.134H146.944V127.534H158.063V125.134Z" fill="white"/>
<path d="M172.626 91.5051H159.777V130.579H172.626V91.5051Z" fill="#C53F3F"/>
<path d="M171.735 93.795H160.616V96.1953H171.735V93.795Z" fill="white"/>
<path d="M171.735 125.134H160.616V127.534H171.735V125.134Z" fill="white"/>
<path d="M186.298 91.5051H173.448V130.579H186.298V91.5051Z" fill="#C53F3F"/>
<path d="M185.407 93.795H174.288V96.1953H185.407V93.795Z" fill="white"/>
<path d="M185.407 125.134H174.288V127.534H185.407V125.134Z" fill="white"/>
<path d="M199.961 91.5051H187.112V130.579H199.961V91.5051Z" fill="#C53F3F"/>
<path d="M199.079 93.795H187.96V96.1953H199.079V93.795Z" fill="white"/>
<path d="M199.079 125.134H187.96V127.534H199.079V125.134Z" fill="white"/>
<path d="M230.265 91.5051H217.416V130.579H230.265V91.5051Z" fill="#C53F3F"/>
<path d="M229.374 93.795H218.255V96.1953H229.374V93.795Z" fill="white"/>
<path d="M229.374 125.134H218.255V127.534H229.374V125.134Z" fill="white"/>
<path d="M243.937 91.5051H231.088V130.579H243.937V91.5051Z" fill="#C53F3F"/>
<path d="M243.046 93.795H231.927V96.1953H243.046V93.795Z" fill="white"/>
<path d="M243.046 125.134H231.927V127.534H243.046V125.134Z" fill="white"/>
<path d="M257.6 91.5051H244.751V130.579H257.6V91.5051Z" fill="#C53F3F"/>
<path d="M256.71 93.795H245.591V96.1953H256.71V93.795Z" fill="white"/>
<path d="M256.71 125.134H245.591V127.534H256.71V125.134Z" fill="white"/>
<path d="M271.272 91.5051H258.423V130.579H271.272V91.5051Z" fill="#C53F3F"/>
<path d="M270.382 93.795H259.263V96.1953H270.382V93.795Z" fill="white"/>
<path d="M270.382 125.134H259.263V127.534H270.382V125.134Z" fill="white"/>
<path d="M284.944 91.5051H272.095V130.579H284.944V91.5051Z" fill="#C53F3F"/>
<path d="M284.054 93.795H272.935V96.1953H284.054V93.795Z" fill="white"/>
<path d="M284.054 125.134H272.935V127.534H284.054V125.134Z" fill="white"/>
<path d="M297.844 133.988L285.69 130.121L299.278 93.1505L311.44 97.0265L297.844 133.988Z" fill="#C53F3F"/>
<path d="M308.955 101.199L298.438 97.8492L299.278 95.5762L309.794 98.9263L308.955 101.199Z" fill="white"/>
<path d="M298.056 130.842L287.539 127.491L288.379 125.227L298.896 128.577L298.056 130.842Z" fill="white"/>
<path d="M254.895 252.837L242.732 248.961L256.32 211.999L268.482 215.867L254.895 252.837Z" fill="#C53F3F"/>
<path d="M265.997 220.04L255.48 216.69L256.32 214.425L266.836 217.767L265.997 220.04Z" fill="white"/>
<path d="M255.098 249.691L244.581 246.34L245.421 244.067L255.938 247.417L255.098 249.691Z" fill="white"/>
<path d="M140.083 50.43H127.234V89.5035H140.083V50.43Z" fill="#C53F3F"/>
<path d="M139.192 52.7285H128.073V55.1287H139.192V52.7285Z" fill="white"/>
<path d="M139.192 84.0585H128.073V86.4587H139.192V84.0585Z" fill="white"/>
<path d="M56.7623 133.377H43.9131V172.451H56.7623V133.377Z" fill="#C53F3F"/>
<path d="M55.8717 135.676H44.7527V138.076H55.8717V135.676Z" fill="white"/>
<path d="M55.8717 167.006H44.7527V169.406H55.8717V167.006Z" fill="white"/>
<path d="M70.4342 133.377H57.585V172.451H70.4342V133.377Z" fill="#C53F3F"/>
<path d="M69.5437 135.676H58.4246V138.076H69.5437V135.676Z" fill="white"/>
<path d="M69.5437 167.006H58.4246V169.406H69.5437V167.006Z" fill="white"/>
<path d="M84.1061 133.377H71.2569V172.451H84.1061V133.377Z" fill="#C53F3F"/>
<path d="M83.2156 135.676H72.0965V138.076H83.2156V135.676Z" fill="white"/>
<path d="M83.2156 167.006H72.0965V169.406H83.2156V167.006Z" fill="white"/>
<path d="M97.778 133.377H84.9288V172.451H97.778V133.377Z" fill="#C53F3F"/>
<path d="M96.8875 135.676H85.7685V138.076H96.8875V135.676Z" fill="white"/>
<path d="M96.8875 167.006H85.7685V169.406H96.8875V167.006Z" fill="white"/>
<path d="M111.441 133.377H98.5922V172.451H111.441V133.377Z" fill="#C53F3F"/>
<path d="M110.551 135.676H99.4319V138.076H110.551V135.676Z" fill="white"/>
<path d="M110.551 167.006H99.4319V169.406H110.551V167.006Z" fill="white"/>
<path d="M98.7364 214.713H85.8872V253.787H98.7364V214.713Z" fill="#C53F3F"/>
<path d="M97.8459 217.012H86.7268V219.412H97.8459V217.012Z" fill="white"/>
<path d="M97.8459 248.35H86.7268V250.751H97.8459V248.35Z" fill="white"/>
<path d="M112.4 214.713H99.5506V253.787H112.4V214.713Z" fill="#C53F3F"/>
<path d="M111.509 217.012H100.39V219.412H111.509V217.012Z" fill="white"/>
<path d="M111.509 248.35H100.39V250.751H111.509V248.35Z" fill="white"/>
<path d="M126.072 214.713H113.223V253.787H126.072V214.713Z" fill="#C53F3F"/>
<path d="M125.181 217.012H114.062V219.412H125.181V217.012Z" fill="white"/>
<path d="M125.181 248.35H114.062V250.751H125.181V248.35Z" fill="white"/>
<path d="M139.744 214.713H126.894V253.787H139.744V214.713Z" fill="#C53F3F"/>
<path d="M138.853 217.012H127.734V219.412H138.853V217.012Z" fill="white"/>
<path d="M138.853 248.35H127.734V250.751H138.853V248.35Z" fill="white"/>
<path d="M153.416 214.713H140.566V253.787H153.416V214.713Z" fill="#C53F3F"/>
<path d="M152.525 217.012H141.406V219.412H152.525V217.012Z" fill="white"/>
<path d="M152.525 248.35H141.406V250.751H152.525V248.35Z" fill="white"/>
<path d="M125.113 133.377H112.264V172.451H125.113V133.377Z" fill="#C53F3F"/>
<path d="M124.223 135.676H113.104V138.076H124.223V135.676Z" fill="white"/>
<path d="M124.223 167.006H113.104V169.406H124.223V167.006Z" fill="white"/>
<path d="M138.785 133.377H125.936V172.451H138.785V133.377Z" fill="#C53F3F"/>
<path d="M137.895 135.676H126.776V138.076H137.895V135.676Z" fill="white"/>
<path d="M137.895 167.006H126.776V169.406H137.895V167.006Z" fill="white"/>
<path d="M152.33 133.377H139.481V172.451H152.33V133.377Z" fill="#C53F3F"/>
<path d="M151.439 135.676H140.32V138.076H151.439V135.676Z" fill="white"/>
<path d="M151.439 167.006H140.32V169.406H151.439V167.006Z" fill="white"/>
<path d="M165.875 133.377H153.025V172.451H165.875V133.377Z" fill="#C53F3F"/>
<path d="M164.984 135.676H153.865V138.076H164.984V135.676Z" fill="white"/>
<path d="M164.984 167.006H153.865V169.406H164.984V167.006Z" fill="white"/>
<path d="M201.98 169.907L189.673 173.342L177.613 135.922L189.919 132.487L201.98 169.907Z" fill="#C53F3F"/>
<path d="M190.513 137.22L179.86 140.196L179.123 137.898L189.767 134.921L190.513 137.22Z" fill="white"/>
<path d="M200.182 167.235L189.538 170.203L188.8 167.905L199.444 164.937L200.182 167.235Z" fill="white"/>
<path d="M179.419 133.377H166.57V172.451H179.419V133.377Z" fill="#C53F3F"/>
<path d="M178.529 135.676H167.41V138.076H178.529V135.676Z" fill="white"/>
<path d="M178.529 167.006H167.41V169.406H178.529V167.006Z" fill="white"/>
<path d="M97.4387 174.045H84.5895V213.119H97.4387V174.045Z" fill="#C53F3F"/>
<path d="M96.5482 176.344H85.4292V178.744H96.5482V176.344Z" fill="white"/>
<path d="M96.5482 207.674H85.4292V210.074H96.5482V207.674Z" fill="white"/>
<path d="M111.102 174.045H98.253V213.119H111.102V174.045Z" fill="#C53F3F"/>
<path d="M110.212 176.344H99.0926V178.744H110.212V176.344Z" fill="white"/>
<path d="M110.212 207.674H99.0926V210.074H110.212V207.674Z" fill="white"/>
<path d="M124.774 174.045H111.925V213.119H124.774V174.045Z" fill="#C53F3F"/>
<path d="M123.884 176.344H112.765V178.744H123.884V176.344Z" fill="white"/>
<path d="M123.884 207.674H112.765V210.074H123.884V207.674Z" fill="white"/>
<path d="M138.446 174.045H125.597V213.119H138.446V174.045Z" fill="#C53F3F"/>
<path d="M137.555 176.344H126.436V178.744H137.555V176.344Z" fill="white"/>
<path d="M137.555 207.674H126.436V210.074H137.555V207.674Z" fill="white"/>
<path d="M152.118 174.045H139.269V213.119H152.118V174.045Z" fill="#C53F3F"/>
<path d="M151.227 176.344H140.108V178.744H151.227V176.344Z" fill="white"/>
<path d="M151.227 207.674H140.108V210.074H151.227V207.674Z" fill="white"/>
<path d="M165.781 174.045H152.932V213.119H165.781V174.045Z" fill="#C53F3F"/>
<path d="M164.891 176.344H153.772V178.744H164.891V176.344Z" fill="white"/>
<path d="M164.891 207.674H153.772V210.074H164.891V207.674Z" fill="white"/>
<path d="M179.453 174.045H166.604V213.119H179.453V174.045Z" fill="#C53F3F"/>
<path d="M178.563 176.344H167.444V178.744H178.563V176.344Z" fill="white"/>
<path d="M178.563 207.674H167.444V210.074H178.563V207.674Z" fill="white"/>
<path d="M227.237 174.045H214.388V213.119H227.237V174.045Z" fill="#C53F3F"/>
<path d="M226.347 176.344H215.227V178.744H226.347V176.344Z" fill="white"/>
<path d="M226.347 207.674H215.227V210.074H226.347V207.674Z" fill="white"/>
<path d="M240.901 174.045H228.051V213.119H240.901V174.045Z" fill="#C53F3F"/>
<path d="M240.018 176.344H228.899V178.744H240.018V176.344Z" fill="white"/>
<path d="M240.018 207.674H228.899V210.074H240.018V207.674Z" fill="white"/>
<path d="M254.572 174.045H241.723V213.119H254.572V174.045Z" fill="#C53F3F"/>
<path d="M253.682 176.344H242.563V178.744H253.682V176.344Z" fill="white"/>
<path d="M253.682 207.674H242.563V210.074H253.682V207.674Z" fill="white"/>
<path d="M268.244 174.045H255.395V213.119H268.244V174.045Z" fill="#C53F3F"/>
<path d="M267.354 176.344H256.235V178.744H267.354V176.344Z" fill="white"/>
<path d="M267.354 207.674H256.235V210.074H267.354V207.674Z" fill="white"/>
<path d="M281.916 174.045H269.067V213.119H281.916V174.045Z" fill="#C53F3F"/>
<path d="M281.026 176.344H269.907V178.744H281.026V176.344Z" fill="white"/>
<path d="M281.026 207.674H269.907V210.074H281.026V207.674Z" fill="white"/>
<path d="M295.58 174.045H282.73V213.119H295.58V174.045Z" fill="#C53F3F"/>
<path d="M294.698 176.344H283.579V178.744H294.698V176.344Z" fill="white"/>
<path d="M294.698 207.674H283.579V210.074H294.698V207.674Z" fill="white"/>
<path d="M309.252 174.045H296.402V213.119H309.252V174.045Z" fill="#C53F3F"/>
<path d="M308.361 176.344H297.242V178.744H308.361V176.344Z" fill="white"/>
<path d="M308.361 207.674H297.242V210.074H308.361V207.674Z" fill="white"/>
<path d="M160.133 50.43H147.284V89.5035H160.133V50.43Z" fill="#C53F3F"/>
<path d="M159.242 52.7285H148.123V55.1287H159.242V52.7285Z" fill="white"/>
<path d="M159.242 84.0585H148.123V86.4587H159.242V84.0585Z" fill="white"/>
<path d="M174.712 50.43H161.863V89.5035H174.712V50.43Z" fill="#C53F3F"/>
<path d="M173.822 52.7285H162.703V55.1287H173.822V52.7285Z" fill="white"/>
<path d="M173.822 84.0585H162.703V86.4587H173.822V84.0585Z" fill="white"/>
<path d="M189.292 50.43H176.442V89.5035H189.292V50.43Z" fill="#C53F3F"/>
<path d="M188.401 52.7285H177.282V55.1287H188.401V52.7285Z" fill="white"/>
<path d="M188.401 84.0585H177.282V86.4587H188.401V84.0585Z" fill="white"/>
<path d="M203.871 50.43H191.022V89.5035H203.871V50.43Z" fill="#C53F3F"/>
<path d="M202.98 52.7285H191.861V55.1287H202.98V52.7285Z" fill="white"/>
<path d="M202.98 84.0585H191.861V86.4587H202.98V84.0585Z" fill="white"/>
<path d="M101.705 130.044L96.5228 131.333L85.8193 94.1852L91.0014 92.8961L101.705 130.044Z" fill="#C53F3F"/>
<path d="M91.9259 97.4505L87.4477 98.5616L86.7947 96.2801L91.2728 95.1691L91.9259 97.4505Z" fill="white"/>
<path d="M100.509 127.237L96.0309 128.357L95.3778 126.075L99.8475 124.956L100.509 127.237Z" fill="white"/>
<path d="M106.471 92.8876H101.111V131.35H106.471V92.8876Z" fill="#C53F3F"/>
<path d="M106.098 95.1436H101.459V97.5014H106.098V95.1436Z" fill="white"/>
<path d="M106.098 125.99H101.459V128.348H106.098V125.99Z" fill="white"/>
<path d="M112.239 92.8876H106.878V131.35H112.239V92.8876Z" fill="#C53F3F"/>
<path d="M111.866 95.1436H107.226V97.5014H111.866V95.1436Z" fill="white"/>
<path d="M111.866 125.99H107.226V128.348H111.866V125.99Z" fill="white"/>
<path d="M46.2794 117.509C47.7493 121.093 47.7493 125.112 46.2794 128.696H83.5039C83.5039 128.696 88.1008 127.508 88.1008 123.107C87.8188 121.913 87.269 120.8 86.4932 119.851C85.7173 118.902 84.7357 118.141 83.6227 117.628L46.2794 117.509Z" fill="white"/>
<path opacity="0.25" d="M85.285 118.459C83.6651 117.526 82.1808 117.611 80.3149 117.611H76.7952H67.6269L49.8161 117.551C49.5277 117.551 46.6356 117.806 46.5084 117.551C46.8308 118.287 47.0753 119.055 47.2378 119.841H84.4114V128.34C85.4705 127.922 86.3847 127.205 87.0416 126.275C87.6985 125.345 88.0696 124.244 88.1093 123.107C88.1448 122.212 87.9332 121.325 87.4979 120.542C87.0625 119.76 86.4202 119.112 85.6412 118.671L85.285 118.459Z" fill="black"/>
<path d="M82.1045 130.248H44.7103C44.4116 130.223 44.1333 130.086 43.9305 129.865C43.7276 129.645 43.6151 129.356 43.6151 129.056C43.6151 128.756 43.7276 128.468 43.9305 128.247C44.1333 128.026 44.4116 127.89 44.7103 127.865H82.1045C82.7231 127.891 83.3407 127.792 83.92 127.574C84.4994 127.356 85.0286 127.022 85.4757 126.594C85.9228 126.166 86.2787 125.651 86.5217 125.082C86.7648 124.512 86.8901 123.9 86.8901 123.28C86.8901 122.661 86.7648 122.048 86.5217 121.479C86.2787 120.91 85.9228 120.395 85.4757 119.967C85.0286 119.539 84.4994 119.205 83.92 118.987C83.3407 118.768 82.7231 118.67 82.1045 118.696H45.0496C44.7346 118.696 44.4326 118.571 44.2099 118.348C43.9873 118.126 43.8622 117.824 43.8622 117.509C43.8622 117.194 43.9873 116.892 44.2099 116.669C44.4326 116.447 44.7346 116.321 45.0496 116.321H82.1045C83.9512 116.321 85.7224 117.055 87.0282 118.361C88.3341 119.667 89.0677 121.438 89.0677 123.285C89.0677 125.131 88.3341 126.903 87.0282 128.208C85.7224 129.514 83.9512 130.248 82.1045 130.248Z" fill="#C53F3F"/>
<path d="M86.3112 103.727C84.8422 107.311 84.8422 111.329 86.3112 114.914H49.0867C49.0867 114.914 44.4898 113.726 44.4898 109.324C44.7718 108.131 45.3216 107.018 46.0974 106.069C46.8733 105.12 47.8549 104.359 48.9679 103.845L86.3112 103.727Z" fill="white"/>
<path opacity="0.25" d="M47.3056 104.677C48.9255 103.744 50.4098 103.828 52.2757 103.828H55.7954H64.9637L82.7745 103.778C83.0629 103.778 85.955 104.032 86.0823 103.778C85.7582 104.516 85.511 105.287 85.3444 106.076H48.1877V114.608C47.1286 114.191 46.2145 113.473 45.5575 112.544C44.9006 111.614 44.5295 110.513 44.4898 109.375C44.4543 108.481 44.6659 107.593 45.1012 106.811C45.5366 106.029 46.1789 105.381 46.9579 104.94L47.3056 104.677Z" fill="black"/>
<path d="M50.4861 116.466H87.8803C88.179 116.44 88.4573 116.304 88.6601 116.083C88.863 115.863 88.9755 115.574 88.9755 115.274C88.9755 114.974 88.863 114.685 88.6601 114.465C88.4573 114.244 88.179 114.108 87.8803 114.082H50.4861C49.2714 114.082 48.1065 113.6 47.2476 112.741C46.3887 111.882 45.9062 110.717 45.9062 109.502C45.9062 108.288 46.3887 107.123 47.2476 106.264C48.1065 105.405 49.2714 104.923 50.4861 104.923H87.541C87.8397 104.897 88.118 104.761 88.3209 104.54C88.5237 104.32 88.6363 104.031 88.6363 103.731C88.6363 103.431 88.5237 103.142 88.3209 102.922C88.118 102.701 87.8397 102.565 87.541 102.539H50.4861C48.6394 102.539 46.8682 103.273 45.5624 104.579C44.2565 105.885 43.5229 107.656 43.5229 109.502C43.5229 111.349 44.2565 113.12 45.5624 114.426C46.8682 115.732 48.6394 116.466 50.4861 116.466Z" fill="#C53F3F"/>
<path d="M267.371 158.983C268.84 162.567 268.84 166.585 267.371 170.169H304.595C304.595 170.169 309.192 168.982 309.192 164.58C308.91 163.387 308.36 162.274 307.585 161.325C306.809 160.375 305.827 159.615 304.714 159.101L267.371 158.983Z" fill="white"/>
<path opacity="0.25" d="M306.376 159.933C304.756 159 303.272 159.084 301.406 159.084H297.887H288.718L270.907 159.034C270.619 159.034 267.727 159.279 267.6 159.034C267.922 159.769 268.167 160.537 268.329 161.323H305.503V169.813C306.562 169.396 307.476 168.678 308.133 167.749C308.79 166.819 309.161 165.718 309.201 164.58C309.236 163.686 309.025 162.798 308.589 162.016C308.154 161.234 307.512 160.586 306.733 160.145L306.376 159.933Z" fill="black"/>
<path d="M303.196 171.722H265.81C265.512 171.696 265.233 171.56 265.03 171.339C264.828 171.118 264.715 170.83 264.715 170.53C264.715 170.23 264.828 169.941 265.03 169.721C265.233 169.5 265.512 169.363 265.81 169.338H303.204C304.419 169.338 305.584 168.856 306.443 167.997C307.302 167.138 307.784 165.973 307.784 164.758C307.784 163.544 307.302 162.379 306.443 161.52C305.584 160.661 304.419 160.178 303.204 160.178H266.141C265.842 160.153 265.564 160.017 265.361 159.796C265.158 159.575 265.046 159.287 265.046 158.987C265.046 158.687 265.158 158.398 265.361 158.178C265.564 157.957 265.842 157.82 266.141 157.795H303.196C305.043 157.795 306.814 158.529 308.12 159.835C309.426 161.14 310.159 162.912 310.159 164.758C310.159 166.605 309.426 168.376 308.12 169.682C306.814 170.988 305.043 171.722 303.196 171.722Z" fill="#C53F3F"/>
<path d="M307.369 145.2C305.9 148.785 305.9 152.803 307.369 156.387H270.178C270.178 156.387 265.581 155.2 265.581 150.798C265.863 149.605 266.413 148.492 267.189 147.543C267.965 146.593 268.946 145.833 270.059 145.319L307.369 145.2Z" fill="white"/>
<path opacity="0.25" d="M268.397 146.15C270.017 145.217 271.501 145.302 273.367 145.302H276.887H286.055L303.866 145.251C304.154 145.251 307.046 145.506 307.174 145.251C306.85 145.99 306.602 146.76 306.436 147.55H269.279V156.082C268.22 155.665 267.306 154.947 266.649 154.018C265.992 153.088 265.621 151.987 265.581 150.849C265.546 149.954 265.757 149.067 266.193 148.285C266.628 147.502 267.27 146.855 268.049 146.413L268.397 146.15Z" fill="black"/>
<path d="M271.578 157.939H308.972C309.27 157.914 309.549 157.778 309.752 157.557C309.954 157.336 310.067 157.047 310.067 156.748C310.067 156.448 309.954 156.159 309.752 155.938C309.549 155.718 309.27 155.581 308.972 155.556H271.578C270.363 155.556 269.198 155.074 268.339 154.215C267.48 153.356 266.998 152.191 266.998 150.976C266.998 149.761 267.48 148.597 268.339 147.738C269.198 146.879 270.363 146.396 271.578 146.396H308.632C308.931 146.371 309.209 146.235 309.412 146.014C309.615 145.793 309.728 145.504 309.728 145.205C309.728 144.905 309.615 144.616 309.412 144.395C309.209 144.175 308.931 144.038 308.632 144.013H271.578C269.731 144.013 267.96 144.747 266.654 146.052C265.348 147.358 264.614 149.129 264.614 150.976C264.614 152.823 265.348 154.594 266.654 155.9C267.96 157.206 269.731 157.939 271.578 157.939Z" fill="#C53F3F"/>
<path d="M266.506 238.308C267.976 241.893 267.976 245.911 266.506 249.495H303.73C303.73 249.495 308.327 248.308 308.327 243.906C308.044 242.712 307.493 241.598 306.716 240.649C305.938 239.7 304.955 238.94 303.841 238.427L266.506 238.308Z" fill="white"/>
<path opacity="0.25" d="M305.511 239.258C303.891 238.325 302.407 238.41 300.541 238.41H297.021H287.853L270.042 238.351C269.746 238.351 266.862 238.605 266.735 238.351C267.059 239.086 267.303 239.854 267.464 240.641H304.638V249.182C305.697 248.764 306.611 248.047 307.268 247.117C307.925 246.187 308.296 245.086 308.336 243.949C308.371 243.054 308.16 242.167 307.724 241.384C307.289 240.602 306.646 239.954 305.868 239.513L305.511 239.258Z" fill="black"/>
<path d="M302.331 251.047H264.962C264.663 251.022 264.385 250.886 264.182 250.665C263.979 250.444 263.867 250.156 263.867 249.856C263.867 249.556 263.979 249.267 264.182 249.047C264.385 248.826 264.663 248.689 264.962 248.664H302.356C302.975 248.691 303.592 248.592 304.172 248.374C304.751 248.155 305.28 247.822 305.728 247.394C306.175 246.965 306.53 246.451 306.774 245.881C307.017 245.312 307.142 244.699 307.142 244.08C307.142 243.461 307.017 242.848 306.774 242.279C306.53 241.709 306.175 241.195 305.728 240.767C305.28 240.338 304.751 240.005 304.172 239.786C303.592 239.568 302.975 239.469 302.356 239.496H265.276C264.961 239.496 264.659 239.371 264.436 239.148C264.214 238.925 264.088 238.623 264.088 238.308C264.088 237.994 264.214 237.692 264.436 237.469C264.659 237.246 264.961 237.121 265.276 237.121H302.331C304.178 237.121 305.949 237.855 307.255 239.161C308.56 240.466 309.294 242.238 309.294 244.084C309.294 245.931 308.56 247.702 307.255 249.008C305.949 250.314 304.178 251.047 302.331 251.047Z" fill="#C53F3F"/>
<path d="M306.521 224.526C305.052 228.111 305.052 232.129 306.521 235.713H269.313C269.313 235.713 264.716 234.526 264.716 230.124C265.005 228.938 265.559 227.833 266.336 226.891C267.113 225.949 268.093 225.196 269.203 224.688L306.521 224.526Z" fill="white"/>
<path opacity="0.25" d="M267.506 225.476C269.126 224.543 270.611 224.628 272.477 224.628H275.988H285.156L302.967 224.577C303.255 224.577 306.147 224.832 306.275 224.577C305.951 225.313 305.704 226.081 305.537 226.867H268.414V235.408C267.355 234.991 266.441 234.273 265.784 233.343C265.127 232.414 264.756 231.312 264.716 230.175C264.681 229.28 264.892 228.393 265.328 227.611C265.763 226.828 266.405 226.181 267.184 225.739L267.506 225.476Z" fill="black"/>
<path d="M270.712 237.265H308.107C308.405 237.24 308.684 237.104 308.886 236.883C309.089 236.662 309.202 236.373 309.202 236.074C309.202 235.774 309.089 235.485 308.886 235.264C308.684 235.044 308.405 234.907 308.107 234.882H270.712C269.498 234.882 268.333 234.4 267.474 233.541C266.615 232.682 266.132 231.517 266.132 230.302C266.132 229.087 266.615 227.923 267.474 227.064C268.333 226.205 269.498 225.722 270.712 225.722H307.767C308.066 225.697 308.344 225.561 308.547 225.34C308.75 225.119 308.863 224.83 308.863 224.531C308.863 224.231 308.75 223.942 308.547 223.721C308.344 223.501 308.066 223.364 307.767 223.339H270.712C268.866 223.339 267.095 224.073 265.789 225.378C264.483 226.684 263.749 228.455 263.749 230.302C263.749 232.149 264.483 233.92 265.789 235.226C267.095 236.532 268.866 237.265 270.712 237.265Z" fill="#C53F3F"/>
<path d="M200.402 238.308C201.872 241.893 201.872 245.911 200.402 249.495H237.627C237.627 249.495 242.224 248.308 242.224 243.906C241.941 242.712 241.39 241.598 240.612 240.649C239.835 239.7 238.852 238.94 237.737 238.427L200.402 238.308Z" fill="white"/>
<path opacity="0.25" d="M239.408 239.258C237.788 238.325 236.304 238.41 234.438 238.41H230.918H221.75L203.939 238.351C203.642 238.351 200.758 238.605 200.631 238.351C200.955 239.086 201.2 239.854 201.361 240.641H238.534V249.182C239.593 248.764 240.507 248.047 241.164 247.117C241.821 246.187 242.192 245.086 242.232 243.949C242.268 243.053 242.055 242.165 241.618 241.382C241.181 240.599 240.537 239.952 239.756 239.513L239.408 239.258Z" fill="black"/>
<path d="M236.227 251.047H198.808C198.509 251.022 198.231 250.886 198.028 250.665C197.825 250.444 197.712 250.156 197.712 249.856C197.712 249.556 197.825 249.267 198.028 249.047C198.231 248.826 198.509 248.689 198.808 248.664H236.202C236.82 248.691 237.438 248.592 238.017 248.374C238.597 248.155 239.126 247.822 239.573 247.394C240.02 246.965 240.376 246.451 240.619 245.881C240.862 245.312 240.987 244.699 240.987 244.08C240.987 243.461 240.862 242.848 240.619 242.279C240.376 241.709 240.02 241.195 239.573 240.767C239.126 240.338 238.597 240.005 238.017 239.786C237.438 239.568 236.82 239.469 236.202 239.496H199.172C198.857 239.496 198.555 239.371 198.333 239.148C198.11 238.925 197.985 238.623 197.985 238.308C197.985 237.994 198.11 237.692 198.333 237.469C198.555 237.246 198.857 237.121 199.172 237.121H236.227C238.074 237.121 239.845 237.855 241.151 239.161C242.457 240.466 243.19 242.238 243.19 244.084C243.19 245.931 242.457 247.702 241.151 249.008C239.845 250.314 238.074 251.047 236.227 251.047Z" fill="#C53F3F"/>
<path d="M200.402 224.526C201.871 228.111 201.871 232.129 200.402 235.713H237.627C237.627 235.713 242.224 234.526 242.224 230.124C241.935 228.938 241.381 227.833 240.604 226.891C239.827 225.949 238.847 225.196 237.737 224.688L200.402 224.526Z" fill="white"/>
<path opacity="0.25" d="M239.408 225.476C237.788 224.543 236.304 224.628 234.438 224.628H230.918H221.75L203.939 224.577C203.642 224.577 200.758 224.832 200.631 224.577C200.954 225.313 201.198 226.08 201.361 226.867H238.534V235.408C239.593 234.991 240.507 234.273 241.164 233.343C241.821 232.414 242.192 231.312 242.232 230.175C242.268 229.279 242.055 228.391 241.618 227.608C241.181 226.826 240.537 226.179 239.756 225.739L239.408 225.476Z" fill="black"/>
<path d="M236.227 237.265H198.808C198.509 237.24 198.231 237.104 198.028 236.883C197.825 236.662 197.712 236.373 197.712 236.074C197.712 235.774 197.825 235.485 198.028 235.264C198.231 235.044 198.509 234.907 198.808 234.882H236.202C237.417 234.882 238.581 234.4 239.44 233.541C240.299 232.682 240.782 231.517 240.782 230.302C240.782 229.087 240.299 227.923 239.44 227.064C238.581 226.205 237.417 225.722 236.202 225.722H199.172C198.874 225.697 198.595 225.561 198.393 225.34C198.19 225.119 198.077 224.83 198.077 224.531C198.077 224.231 198.19 223.942 198.393 223.721C198.595 223.501 198.874 223.364 199.172 223.339H236.227C238.074 223.339 239.845 224.073 241.151 225.378C242.457 226.684 243.19 228.455 243.19 230.302C243.19 232.149 242.457 233.92 241.151 235.226C239.845 236.532 238.074 237.265 236.227 237.265Z" fill="#C53F3F"/>
<path d="M43.2515 238.308C44.7215 241.893 44.7215 245.911 43.2515 249.495H80.4761C80.4761 249.495 85.073 248.308 85.073 243.906C84.79 242.712 84.239 241.598 83.4616 240.649C82.6843 239.7 81.701 238.94 80.5863 238.427L43.2515 238.308Z" fill="white"/>
<path opacity="0.25" d="M82.2572 239.258C80.6372 238.325 79.153 238.41 77.2871 238.41H73.7674H64.599L46.7882 238.351C46.4914 238.351 43.6077 238.605 43.4805 238.351C43.8047 239.086 44.0492 239.854 44.2099 240.641H81.3836V249.182C82.4427 248.764 83.3568 248.047 84.0137 247.117C84.6706 246.187 85.0418 245.086 85.0815 243.949C85.1169 243.054 84.9054 242.167 84.47 241.384C84.0347 240.602 83.3923 239.954 82.6134 239.513L82.2572 239.258Z" fill="black"/>
<path d="M79.0767 251.047H41.6825C41.3838 251.022 41.1055 250.886 40.9026 250.665C40.6998 250.444 40.5872 250.156 40.5872 249.856C40.5872 249.556 40.6998 249.267 40.9026 249.047C41.1055 248.826 41.3838 248.689 41.6825 248.664H79.0767C79.6953 248.691 80.3128 248.592 80.8922 248.374C81.4716 248.155 82.0008 247.822 82.4479 247.394C82.895 246.965 83.2508 246.451 83.4939 245.881C83.737 245.312 83.8623 244.699 83.8623 244.08C83.8623 243.461 83.737 242.848 83.4939 242.279C83.2508 241.709 82.895 241.195 82.4479 240.767C82.0008 240.338 81.4716 240.005 80.8922 239.786C80.3128 239.568 79.6953 239.469 79.0767 239.496H42.0217C41.7068 239.496 41.4048 239.371 41.1821 239.148C40.9594 238.925 40.8343 238.623 40.8343 238.308C40.8343 237.994 40.9594 237.692 41.1821 237.469C41.4048 237.246 41.7068 237.121 42.0217 237.121H79.0767C80.9234 237.121 82.6945 237.855 84.0004 239.161C85.3062 240.466 86.0398 242.238 86.0398 244.084C86.0398 245.931 85.3062 247.702 84.0004 249.008C82.6945 250.314 80.9234 251.047 79.0767 251.047Z" fill="#C53F3F"/>
<path d="M83.2834 224.526C81.8144 228.111 81.8144 232.129 83.2834 235.713H46.0588C46.0588 235.713 41.462 234.526 41.462 230.124C41.744 228.931 42.2938 227.818 43.0696 226.868C43.8454 225.919 44.827 225.159 45.9401 224.645L83.2834 224.526Z" fill="white"/>
<path opacity="0.25" d="M44.2778 225.476C45.8977 224.543 47.3819 224.628 49.2478 224.628H52.7676H61.9359L79.7467 224.577C80.0351 224.577 82.9272 224.832 83.0544 224.577C82.7311 225.313 82.4839 226.081 82.3165 226.867H45.1598V235.408C44.1008 234.991 43.1866 234.273 42.5297 233.343C41.8728 232.414 41.5017 231.312 41.462 230.175C41.4265 229.28 41.638 228.393 42.0734 227.611C42.5087 226.828 43.1511 226.181 43.93 225.739L44.2778 225.476Z" fill="black"/>
<path d="M47.4583 237.265H84.8525C85.1511 237.24 85.4295 237.104 85.6323 236.883C85.8351 236.662 85.9477 236.373 85.9477 236.074C85.9477 235.774 85.8351 235.485 85.6323 235.264C85.4295 235.044 85.1511 234.907 84.8525 234.882H47.4583C46.2436 234.882 45.0787 234.4 44.2198 233.541C43.3609 232.682 42.8783 231.517 42.8783 230.302C42.8783 229.087 43.3609 227.923 44.2198 227.064C45.0787 226.205 46.2436 225.722 47.4583 225.722H84.5132C84.8119 225.697 85.0902 225.561 85.2931 225.34C85.4959 225.119 85.6085 224.83 85.6085 224.531C85.6085 224.231 85.4959 223.942 85.2931 223.721C85.0902 223.501 84.8119 223.364 84.5132 223.339H47.4583C45.6115 223.339 43.8404 224.073 42.5346 225.378C41.2287 226.684 40.4951 228.455 40.4951 230.302C40.4951 232.149 41.2287 233.92 42.5346 235.226C43.8404 236.532 45.6115 237.265 47.4583 237.265Z" fill="#C53F3F"/>
<path d="M221.08 158.983C222.549 162.567 222.549 166.585 221.08 170.169H258.304C258.304 170.169 262.901 168.982 262.901 164.58C262.616 163.387 262.065 162.274 261.288 161.325C260.51 160.376 259.528 159.616 258.414 159.101L221.08 158.983Z" fill="white"/>
<path opacity="0.25" d="M260.085 159.933C258.457 159 256.973 159.084 255.107 159.084H251.587H242.427L224.616 159.034C224.328 159.034 221.444 159.279 221.317 159.034C221.635 159.771 221.879 160.538 222.047 161.323H259.22V169.813C260.279 169.395 261.192 168.677 261.849 167.748C262.506 166.818 262.877 165.718 262.918 164.58C262.95 163.685 262.736 162.799 262.299 162.017C261.863 161.235 261.22 160.587 260.442 160.145L260.085 159.933Z" fill="black"/>
<path d="M256.905 171.722H219.511C219.212 171.696 218.934 171.56 218.731 171.339C218.528 171.118 218.415 170.83 218.415 170.53C218.415 170.23 218.528 169.941 218.731 169.721C218.934 169.5 219.212 169.363 219.511 169.338H256.905C258.119 169.338 259.284 168.856 260.143 167.997C261.002 167.138 261.485 165.973 261.485 164.758C261.485 163.544 261.002 162.379 260.143 161.52C259.284 160.661 258.119 160.178 256.905 160.178H219.841C219.543 160.153 219.264 160.017 219.062 159.796C218.859 159.575 218.746 159.287 218.746 158.987C218.746 158.687 218.859 158.398 219.062 158.178C219.264 157.957 219.543 157.82 219.841 157.795H256.905C258.752 157.795 260.523 158.529 261.829 159.835C263.134 161.14 263.868 162.912 263.868 164.758C263.868 166.605 263.134 168.376 261.829 169.682C260.523 170.988 258.752 171.722 256.905 171.722Z" fill="#C53F3F"/>
<path d="M261.103 145.2C259.639 148.786 259.639 152.802 261.103 156.387H223.878C223.878 156.387 219.282 155.2 219.282 150.798C219.566 149.605 220.118 148.492 220.895 147.543C221.672 146.594 222.655 145.834 223.768 145.319L261.103 145.2Z" fill="white"/>
<path opacity="0.25" d="M222.097 146.15C223.726 145.217 225.21 145.302 227.076 145.302H230.596H239.756L257.566 145.251C257.855 145.251 260.738 145.506 260.866 145.251C260.547 145.992 260.303 146.761 260.136 147.55H222.979V156.082C221.921 155.664 221.007 154.946 220.351 154.017C219.694 153.087 219.322 151.986 219.282 150.849C219.25 149.954 219.464 149.067 219.9 148.285C220.337 147.503 220.98 146.856 221.758 146.413L222.097 146.15Z" fill="black"/>
<path d="M225.278 157.939H262.672C262.971 157.914 263.249 157.778 263.452 157.557C263.655 157.336 263.767 157.047 263.767 156.748C263.767 156.448 263.655 156.159 263.452 155.938C263.249 155.718 262.971 155.581 262.672 155.556H225.278C224.063 155.556 222.898 155.074 222.039 154.215C221.181 153.356 220.698 152.191 220.698 150.976C220.698 149.761 221.181 148.597 222.039 147.738C222.898 146.879 224.063 146.396 225.278 146.396H262.341C262.64 146.371 262.918 146.235 263.121 146.014C263.324 145.793 263.437 145.504 263.437 145.205C263.437 144.905 263.324 144.616 263.121 144.395C262.918 144.175 262.64 144.038 262.341 144.013H225.278C223.431 144.013 221.66 144.747 220.354 146.052C219.048 147.358 218.315 149.129 218.315 150.976C218.315 152.823 219.048 154.594 220.354 155.9C221.66 157.206 223.431 157.939 225.278 157.939Z" fill="#C53F3F"/>
<path d="M317.546 40.6426H30.9451V51.3291H34.8211V312.096H41.0548V308.576H309.803V312.096H315.994V51.3036H317.546V40.6426ZM81.2903 175.598H309.803V211.016H81.2903V175.598ZM41.0548 170.254V134.836H309.803V170.254H41.0548ZM41.0548 129.493V94.075H309.803V129.493H41.0548ZM209.146 51.3036V88.7317H41.0548V51.3036H209.146ZM41.0548 251.777V216.359H309.803V251.777H41.0548Z" fill="#263238"/>
<path opacity="0.9" d="M317.546 40.6426H30.9451V51.3291H34.8211V312.096H41.0548V308.576H309.803V312.096H315.994V51.3036H317.546V40.6426ZM81.2903 175.598H309.803V211.016H81.2903V175.598ZM41.0548 170.254V134.836H309.803V170.254H41.0548ZM41.0548 129.493V94.075H309.803V129.493H41.0548ZM209.146 51.3036V88.7317H41.0548V51.3036H209.146ZM41.0548 251.777V216.359H309.803V251.777H41.0548Z" fill="white"/>
<path d="M254.072 73.1854C256.428 73.1854 258.338 71.4083 258.338 69.2162C258.338 67.024 256.428 65.2469 254.072 65.2469C251.716 65.2469 249.806 67.024 249.806 69.2162C249.806 71.4083 251.716 73.1854 254.072 73.1854Z" fill="white"/>
<path d="M270.526 73.1854C272.882 73.1854 274.792 71.4083 274.792 69.2162C274.792 67.024 272.882 65.2469 270.526 65.2469C268.17 65.2469 266.26 67.024 266.26 69.2162C266.26 71.4083 268.17 73.1854 270.526 73.1854Z" fill="white"/>
<path d="M145.969 296.007L144.553 298.127L146.673 299.544L145.265 301.902L147.148 303.547L143.611 305.905L145.494 307.084L145.028 308.738L146.91 309.679L145.028 312.503H87.2866L86.1077 309.679L87.5241 308.025L85.4037 306.846L88.703 305.905L86.5826 304.488L88.932 303.547L85.8702 302.368L93.6476 300.01L84.9288 298.602L87.7531 277.153L145.07 287.008L145.969 296.007Z" fill="white" stroke="#263238" stroke-miterlimit="10" stroke-linecap="round"/>
<path opacity="0.25" d="M143.484 298.958C143.484 298.958 116.344 301.876 99.7202 299.807L108.202 301.851L92.4432 302.699L107.32 305.031L91.5697 306.49L104.114 309.119L89.2203 310.349H143.187L130.957 307.414L138.251 306.252L131.534 305.082L143.789 303.92L131.245 303.335L142.916 302.164L130.372 301.579C130.372 301.579 136.775 300.417 143.484 298.958Z" fill="black"/>
<path d="M82.9781 298.475C82.9781 298.475 117.921 300.027 145.969 296.024L145.07 282.361L86.1077 276.729L82.9781 298.475Z" fill="white"/>
<path opacity="0.1" d="M82.9781 298.475C82.9781 298.475 117.921 300.027 145.969 296.024L145.07 282.361L86.1077 276.729L82.9781 298.475Z" fill="black"/>
<path d="M82.9781 298.475C82.9781 298.475 117.921 300.027 145.969 296.024L145.07 282.361L86.1077 276.729L82.9781 298.475Z" stroke="#263238" stroke-miterlimit="10" stroke-linecap="round"/>
<path d="M96.8111 280.512L95.7594 291.648" stroke="#263238" stroke-linecap="round" stroke-linejoin="round"/>
<path d="M105.513 281.207L105.165 292.699" stroke="#263238" stroke-linecap="round" stroke-linejoin="round"/>
<path d="M114.215 282.25L113.867 293.395" stroke="#263238" stroke-linecap="round" stroke-linejoin="round"/>
<path d="M122.23 284.684V293.743" stroke="#263238" stroke-linecap="round" stroke-linejoin="round"/>
<path d="M131.627 286.779L131.975 293.742" stroke="#263238" stroke-linecap="round" stroke-linejoin="round"/>
<path d="M139.99 288.17L140.337 293.743" stroke="#263238" stroke-linecap="round" stroke-linejoin="round"/>
<path d="M146.223 272.361C146.223 272.361 99.7287 292.886 82.995 298.458L86.1246 276.687L133.026 257.281L146.223 272.361Z" fill="white"/>
<path opacity="0.1" d="M107.922 288.611C126.352 282.632 146.206 272.361 146.206 272.361L133.009 257.281L101.925 268.214L107.922 288.611Z" fill="black"/>
<path d="M146.223 272.361C146.223 272.361 99.7287 292.886 82.995 298.458L86.1246 276.687L133.026 257.281L146.223 272.361Z" stroke="#263238" stroke-linecap="round" stroke-linejoin="round"/>
<path d="M101.187 274.244L146.206 272.361L137.25 252.803L92.9436 253.041L101.187 274.244Z" fill="white"/>
<path opacity="0.1" d="M101.187 274.244L146.206 272.361L137.25 252.803L92.9436 253.041L101.187 274.244Z" fill="black"/>
<path d="M101.187 274.244L146.206 272.361L137.25 252.803L92.9436 253.041L101.187 274.244Z" stroke="#263238" stroke-linecap="round" stroke-linejoin="round"/>
<path d="M104.818 256.136L108.999 270.063" stroke="#263238" stroke-linecap="round" stroke-linejoin="round"/>
<path d="M112.824 255.432L117.005 270.063" stroke="#263238" stroke-linecap="round" stroke-linejoin="round"/>
<path d="M120.839 255.085L124.664 269.019" stroke="#263238" stroke-linecap="round" stroke-linejoin="round"/>
<path d="M129.193 255.085L133.374 268.672" stroke="#263238" stroke-linecap="round" stroke-linejoin="round"/>
<path d="M148.191 198.022L161.676 245.009L156.282 246.79L131.686 193.459C131.686 193.459 141.016 190.414 148.191 198.022Z" fill="#263238" stroke="#263238" stroke-linecap="round" stroke-linejoin="round"/>
<path d="M161.676 245.043C161.676 245.043 165.162 250.912 165.162 252.871C165.162 254.83 158.852 254.61 156.028 255.042C153.204 255.475 147.072 259.58 144.527 258.494C144.527 258.494 143.009 257.646 144.527 255.882C146.045 254.118 153.102 250.742 156.316 246.79L161.676 245.043Z" fill="white" stroke="#263238" stroke-linecap="round" stroke-linejoin="round"/>
<path d="M205.915 73.601C205.915 74.4492 204.931 75.2464 204.846 76.0861C204.762 76.9257 205.559 77.9096 205.381 78.7322C205.203 79.5549 204.083 80.1401 203.82 80.9374C203.557 81.7346 204.134 82.8711 203.82 83.6429C203.506 84.4147 202.251 84.7455 201.835 85.4749C201.42 86.2043 201.734 87.4256 201.242 88.1126C200.75 88.7996 199.478 88.8589 198.909 89.4866C198.341 90.1142 198.409 91.3779 197.781 91.9462C197.154 92.5144 195.907 92.3109 195.237 92.7943C194.567 93.2777 194.389 94.5414 193.626 94.9655C192.862 95.3896 191.717 94.9655 190.945 95.2793C190.174 95.5931 189.724 96.806 188.918 97.0689C188.113 97.3318 187.053 96.6363 186.221 96.806C185.39 96.9756 184.712 98.0442 183.864 98.1375C183.015 98.2308 182.167 97.2894 181.319 97.2894C180.471 97.2894 179.572 98.1884 178.775 98.1375C177.977 98.0866 177.231 96.9841 176.417 96.806C175.603 96.6278 174.517 97.3233 173.72 97.0604C172.923 96.7975 172.465 95.6186 171.693 95.2793C170.921 94.9401 169.734 95.3811 169.004 94.9655C168.275 94.5499 168.08 93.2692 167.393 92.7943C166.706 92.3193 165.459 92.489 164.848 91.9462C164.238 91.4034 164.289 90.1142 163.729 89.4866C163.169 88.8589 161.897 88.7911 161.396 88.1126C160.896 87.4341 161.227 86.2043 160.803 85.4749C160.379 84.7455 159.157 84.4147 158.818 83.6429C158.479 82.8711 159.047 81.7431 158.818 80.9374C158.589 80.1317 157.427 79.5634 157.258 78.7322C157.088 77.9011 157.877 76.9342 157.792 76.0861C157.707 75.2379 156.723 74.4576 156.723 73.601C156.723 72.7444 157.707 71.9048 157.792 71.116C157.877 70.3272 157.079 69.284 157.258 68.4613C157.436 67.6387 158.555 67.0619 158.818 66.2562C159.081 65.4505 158.504 64.3225 158.818 63.5591C159.132 62.7958 160.387 62.4566 160.803 61.7272C161.218 60.9978 160.905 59.768 161.396 59.0895C161.888 58.411 163.161 58.3431 163.729 57.7155C164.297 57.0879 164.229 55.8242 164.857 55.2559C165.484 54.6877 166.731 54.8912 167.401 54.4078C168.071 53.9243 168.249 52.6606 169.013 52.2366C169.776 51.8125 170.921 52.2366 171.693 51.9227C172.465 51.6089 172.914 50.3961 173.72 50.1332C174.526 49.8703 175.586 50.5657 176.417 50.3876C177.248 50.2095 177.927 49.1493 178.775 49.0645C179.623 48.9797 180.471 49.9127 181.319 49.9127C182.167 49.9127 183.066 49.0136 183.864 49.0645C184.661 49.1154 185.407 50.218 186.221 50.3876C187.036 50.5572 188.121 49.8787 188.918 50.1332C189.716 50.3876 190.174 51.5835 190.945 51.9227C191.717 52.262 192.905 51.8125 193.634 52.2366C194.363 52.6606 194.558 53.9328 195.245 54.4078C195.932 54.8827 197.179 54.7046 197.79 55.2559C198.401 55.8072 198.35 57.0879 198.909 57.7155C199.469 58.3431 200.741 58.4025 201.242 59.0895C201.742 59.7765 201.411 60.9978 201.835 61.7272C202.26 62.4566 203.481 62.7789 203.82 63.5591C204.159 64.3394 203.591 65.4505 203.82 66.2647C204.049 67.0789 205.211 67.6302 205.381 68.4698C205.55 69.3095 204.762 70.2679 204.846 71.116C204.931 71.9641 205.915 72.7444 205.915 73.601Z" fill="#263238"/>
<path d="M162.287 106.085C162.287 106.085 153.806 124.896 149.565 135.065C145.324 145.234 148.522 153.928 151.261 154.895C154.136 155.912 174.95 148.508 179.894 146.591C184.593 144.768 184.644 144.895 184.644 144.895C184.644 144.895 184.983 160.653 184.983 162.519C184.983 164.385 181.591 171.162 181.93 173.197C182.269 175.233 186.849 179.134 200.402 180.483C213.955 181.831 221.758 178.617 223.107 176.751C224.455 174.885 224.464 172.51 224.464 168.787C224.464 165.064 222.598 143.877 219.892 127.228C217.187 110.58 210.062 103.481 206.67 101.64C203.277 99.7998 197.519 102.319 191.76 106.212C186.001 110.105 182.778 117.738 181.93 119.782C181.082 121.826 164.814 135.371 163.627 136.558C162.44 137.745 166.002 107.408 166.002 107.408L162.287 106.085Z" fill="white" stroke="#263238" stroke-linecap="round" stroke-linejoin="round"/>
<path d="M160.879 109.265L165.544 110.902" stroke="#263238" stroke-linecap="round" stroke-linejoin="round"/>
<path d="M163.644 136.592C163.385 139.332 162.932 142.05 162.287 144.725L163.644 136.592Z" fill="white"/>
<path d="M163.644 136.592C163.385 139.332 162.932 142.05 162.287 144.725" stroke="#263238" stroke-linecap="round" stroke-linejoin="round"/>
<path d="M184.661 144.895L182.625 130.825" stroke="#263238" stroke-linecap="round" stroke-linejoin="round"/>
<path d="M188.214 106.933C188.214 106.933 183.304 118.807 184.322 118.807C185.339 118.807 187.544 115.075 187.544 115.075L190.42 120.842C190.42 120.842 190.928 107.272 190.589 106.772C190.25 106.271 188.893 105.101 188.214 106.933Z" fill="white" stroke="#263238" stroke-linecap="round" stroke-linejoin="round"/>
<path d="M183.134 101.343C183.134 101.343 188.384 108.629 188.893 110.673C189.402 112.717 189.911 122.547 190.42 120.851C190.928 119.154 200.758 101.869 200.928 101.021C201.098 100.173 198.044 94.7535 198.044 94.7535C198.044 94.7535 191.259 99.6642 188.053 100.512C186.451 100.977 184.8 101.256 183.134 101.343Z" fill="white"/>
<path opacity="0.1" d="M183.134 101.343C183.134 101.343 188.384 108.629 188.893 110.673C189.402 112.717 189.911 122.547 190.42 120.851C190.928 119.154 200.758 101.869 200.928 101.021C201.098 100.173 198.044 94.7535 198.044 94.7535C198.044 94.7535 191.259 99.6642 188.053 100.512C186.451 100.977 184.8 101.256 183.134 101.343Z" fill="black"/>
<path d="M183.134 101.343C183.134 101.343 188.384 108.629 188.893 110.673C189.402 112.717 189.911 122.547 190.42 120.851C190.928 119.154 200.758 101.869 200.928 101.021C201.098 100.173 198.044 94.7535 198.044 94.7535C198.044 94.7535 191.259 99.6642 188.053 100.512C186.451 100.977 184.8 101.256 183.134 101.343V101.343Z" stroke="#263238" stroke-linecap="round" stroke-linejoin="round"/>
<path d="M191.268 113.031L190.42 120.834L194.491 115.405L191.268 113.031Z" fill="white" stroke="#263238" stroke-linecap="round" stroke-linejoin="round"/>
<path d="M191.268 113.031L194.66 117.95L206.526 101.174L201.946 97.2725L191.268 113.031Z" fill="white" stroke="#263238" stroke-linecap="round" stroke-linejoin="round"/>
<path d="M195.483 82.0824C195.483 82.0824 196.331 77.6806 198.188 78.0198C200.046 78.3591 199.885 81.7431 198.867 84.1179C198.482 85.1067 198.029 86.0674 197.51 86.993L195.483 82.0824Z" fill="white"/>
<path opacity="0.1" d="M195.483 82.0824C195.483 82.0824 196.331 77.6806 198.188 78.0198C200.046 78.3591 199.885 81.7431 198.867 84.1179C198.482 85.1067 198.029 86.0674 197.51 86.993L195.483 82.0824Z" fill="black"/>
<path d="M195.483 82.0824C195.483 82.0824 196.331 77.6806 198.188 78.0198C200.046 78.3591 199.885 81.7431 198.867 84.1179C198.482 85.1067 198.029 86.0674 197.51 86.993L195.483 82.0824Z" stroke="#263238" stroke-linecap="round" stroke-linejoin="round"/>
<path d="M172.94 88.6893C172.94 88.6893 170.234 86.1449 169.725 89.7071C169.216 93.2692 174.975 93.9477 174.975 93.9477L172.94 88.6893Z" fill="white"/>
<path opacity="0.1" d="M172.94 88.6893C172.94 88.6893 170.234 86.1449 169.725 89.7071C169.216 93.2692 174.975 93.9477 174.975 93.9477L172.94 88.6893Z" fill="black"/>
<path d="M172.94 88.6893C172.94 88.6893 170.234 86.1449 169.725 89.7071C169.216 93.2692 174.975 93.9477 174.975 93.9477L172.94 88.6893Z" stroke="#263238" stroke-linecap="round" stroke-linejoin="round"/>
<path d="M169.047 78.3506C169.047 78.3506 176.502 98.8584 179.224 101.912C181.947 104.965 189.215 106.653 195.152 102.081C201.089 97.5099 199.215 92.4211 197.858 88.3501C196.501 84.279 190.912 70.217 190.063 68.3596C189.215 66.5021 185.153 65.4759 183.117 67.0025C181.082 68.5292 181.93 70.3951 178.546 71.2432C175.162 72.0913 171.091 70.7343 169.216 73.2787C168.689 74.0124 168.392 74.886 168.361 75.7889C168.331 76.6918 168.57 77.5834 169.047 78.3506Z" fill="white"/>
<path opacity="0.1" d="M169.047 78.3506C169.047 78.3506 176.502 98.8584 179.224 101.912C181.947 104.965 189.215 106.653 195.152 102.081C201.089 97.5099 199.215 92.4211 197.858 88.3501C196.501 84.279 190.912 70.217 190.063 68.3596C189.215 66.5021 185.153 65.4759 183.117 67.0025C181.082 68.5292 181.93 70.3951 178.546 71.2432C175.162 72.0913 171.091 70.7343 169.216 73.2787C168.689 74.0124 168.392 74.886 168.361 75.7889C168.331 76.6918 168.57 77.5834 169.047 78.3506Z" fill="black"/>
<path d="M169.047 78.3506C169.047 78.3506 176.502 98.8584 179.224 101.912C181.947 104.965 189.215 106.653 195.152 102.081C201.089 97.5099 199.215 92.4211 197.858 88.3501C196.501 84.279 190.912 70.217 190.063 68.3596C189.215 66.5021 185.153 65.4759 183.117 67.0025C181.082 68.5292 181.93 70.3951 178.546 71.2432C175.162 72.0913 171.091 70.7343 169.216 73.2787C168.689 74.0124 168.392 74.886 168.361 75.7889C168.331 76.6918 168.57 77.5833 169.047 78.3506V78.3506Z" stroke="#263238" stroke-linecap="round" stroke-linejoin="round"/>
<path d="M172.1 84.6169L180.182 81.65C180.5 81.533 180.853 81.5474 181.161 81.6901C181.469 81.8327 181.708 82.092 181.825 82.4109L182.702 84.7994C182.822 85.1256 182.876 85.4722 182.862 85.8194C182.848 86.1666 182.765 86.5076 182.619 86.823C182.473 87.1383 182.267 87.4219 182.011 87.6573C181.756 87.8928 181.456 88.0757 181.13 88.1954L175.62 90.2182C175.294 90.3379 174.948 90.3923 174.6 90.3781C174.253 90.3639 173.912 90.2815 173.597 90.1355C173.281 89.9895 172.998 89.7828 172.763 89.5273C172.527 89.2717 172.344 88.9723 172.224 88.6461L171.348 86.2576C171.23 85.9387 171.245 85.5864 171.388 85.2782C171.53 84.97 171.79 84.731 172.108 84.614L172.1 84.6169Z" fill="white" stroke="#263238" stroke-linecap="round" stroke-linejoin="round"/>
<path d="M185.23 79.8025L193.311 76.8356C193.63 76.7186 193.982 76.733 194.291 76.8757C194.599 77.0183 194.838 77.2776 194.955 77.5965L195.832 79.985C196.074 80.6438 196.044 81.3717 195.749 82.0086C195.454 82.6455 194.918 83.1392 194.26 83.381L188.75 85.4038C188.091 85.6456 187.363 85.6159 186.726 85.3211C186.09 85.0263 185.596 84.4905 185.354 83.8317L184.477 81.4432C184.36 81.1243 184.374 80.7721 184.517 80.4638C184.66 80.1556 184.919 79.9166 185.238 79.7996L185.23 79.8025Z" fill="white" stroke="#263238" stroke-linecap="round" stroke-linejoin="round"/>
<path d="M175.136 90.4025L177.494 84.5674" stroke="#263238" stroke-width="0.5" stroke-linecap="round" stroke-linejoin="round"/>
<path d="M179.301 82.7693L177.494 87.3493" stroke="#263238" stroke-width="0.5" stroke-linecap="round" stroke-linejoin="round"/>
<path d="M188.46 85.2628L190.827 79.4362" stroke="#263238" stroke-width="0.5" stroke-linecap="round" stroke-linejoin="round"/>
<path d="M192.625 77.6296L190.827 82.2096" stroke="#263238" stroke-width="0.5" stroke-linecap="round" stroke-linejoin="round"/>
<path d="M180.047 81.7007L185.382 79.7415" stroke="#263238" stroke-linecap="round" stroke-linejoin="round"/>
<path d="M181.845 82.5488C182.634 81.9933 183.555 81.6542 184.517 81.565" stroke="#263238" stroke-linecap="round" stroke-linejoin="round"/>
<path d="M184.796 77.9604C185.524 76.927 186.535 76.1253 187.706 75.6515C188.878 75.1776 190.162 75.0517 191.403 75.2888" stroke="#263238" stroke-linecap="round" stroke-linejoin="round"/>
<path d="M179.911 80.2758C178.907 79.43 177.621 78.9928 176.309 79.0509C174.997 79.109 173.755 79.6583 172.829 80.5896" stroke="#263238" stroke-linecap="round" stroke-linejoin="round"/>
<path d="M182.693 89.5799C182.693 89.5799 183.117 91.2761 183.49 91.4203C184.788 91.9631 189.012 90.8945 188.935 88.9946C188.823 88.3776 188.614 87.7822 188.316 87.2305" stroke="#263238" stroke-linecap="round" stroke-linejoin="round"/>
<path d="M184.932 95.3726C185.931 95.4357 186.931 95.2707 187.857 94.8901C188.783 94.5096 189.61 93.9234 190.275 93.176" stroke="#263238" stroke-linecap="round" stroke-linejoin="round"/>
<path d="M157.75 138.263C157.75 138.263 155.392 164.657 145.731 191.059C136.071 217.461 92.9436 253.041 92.9436 253.041L101.187 274.244C101.187 274.244 132.06 250.92 146.673 216.511C161.286 182.103 161.761 138.975 161.761 138.975L157.75 138.263Z" fill="white"/>
<path opacity="0.1" d="M144.035 195.088L150.464 206.563C161.388 174.334 161.778 138.975 161.778 138.975L157.766 138.263C157.766 138.263 155.409 164.657 145.748 191.059C145.248 192.382 144.671 193.731 144.035 195.088Z" fill="black"/>
<path d="M157.75 138.263C157.75 138.263 155.392 164.657 145.731 191.059C136.071 217.461 92.9436 253.041 92.9436 253.041L101.187 274.244C101.187 274.244 132.06 250.92 146.673 216.511C161.286 182.103 161.761 138.975 161.761 138.975L157.75 138.263Z" stroke="#263238" stroke-linecap="round" stroke-linejoin="round"/>
<path d="M119.083 185.461C119.083 185.461 115.385 188.981 117.149 193.569C118.913 198.158 149.217 248.902 149.217 248.902L156.265 247.316C156.265 247.316 142.169 201.143 139.523 195.503C136.877 189.863 134.765 186.343 133.009 185.105" fill="#263238"/>
<path d="M119.083 185.461C119.083 185.461 115.385 188.981 117.149 193.569C118.913 198.158 149.217 248.902 149.217 248.902L156.265 247.316C156.265 247.316 142.169 201.143 139.523 195.503C136.877 189.863 134.765 186.343 133.009 185.105" stroke="#263238" stroke-linecap="round" stroke-linejoin="round"/>
<path d="M149.234 248.902C149.234 248.902 140.253 255.068 136.368 256.654C132.484 258.24 133.73 260.182 136.368 260.182C139.006 260.182 149.09 258.944 153.331 258.418C157.571 257.892 159.853 258.24 160.031 255.95C160.209 253.66 156.325 246.79 156.325 246.79L149.234 248.902Z" fill="white" stroke="#263238" stroke-linecap="round" stroke-linejoin="round"/>
<path d="M165.849 89.987C165.849 89.987 165.849 85.5852 166.867 84.737C167.885 83.8889 172.804 81.5141 173.813 82.023C174.822 82.5319 173.983 83.2104 173.304 83.7193C172.626 84.2282 169.445 86.34 169.445 86.34L169.92 91.1744L165.849 89.987Z" fill="white"/>
<path opacity="0.1" d="M165.849 89.987C165.849 89.987 165.849 85.5852 166.867 84.737C167.885 83.8889 172.804 81.5141 173.813 82.023C174.822 82.5319 173.983 83.2104 173.304 83.7193C172.626 84.2282 169.445 86.34 169.445 86.34L169.92 91.1744L165.849 89.987Z" fill="black"/>
<path d="M165.849 89.987C165.849 89.987 165.849 85.5852 166.867 84.737C167.885 83.8889 172.804 81.5141 173.813 82.023C174.822 82.5319 173.983 83.2104 173.304 83.7193C172.626 84.2282 169.445 86.34 169.445 86.34L169.92 91.1744L165.849 89.987Z" stroke="#263238" stroke-linecap="round" stroke-linejoin="round"/>
<path d="M173.491 95.9069C173.491 95.9069 176.035 95.9069 176.536 95.2369C177.036 94.5668 180.098 90.9962 180.267 90.3177C180.437 89.6392 180.267 88.9607 178.402 89.6392C177.856 89.8374 177.361 90.1527 176.951 90.563C176.54 90.9733 176.225 91.4686 176.027 92.014L173.66 92.1836L173.491 95.9069Z" fill="white"/>
<path opacity="0.1" d="M173.491 95.9069C173.491 95.9069 176.035 95.9069 176.536 95.2369C177.036 94.5668 180.098 90.9962 180.267 90.3177C180.437 89.6392 180.267 88.9607 178.402 89.6392C177.856 89.8374 177.361 90.1527 176.951 90.563C176.54 90.9733 176.225 91.4686 176.027 92.014L173.66 92.1836L173.491 95.9069Z" fill="black"/>
<path d="M173.491 95.9069C173.491 95.9069 176.035 95.9069 176.536 95.2369C177.036 94.5668 180.098 90.9962 180.267 90.3177C180.437 89.6392 180.267 88.9607 178.402 89.6392C177.856 89.8374 177.361 90.1527 176.951 90.563C176.54 90.9733 176.225 91.4686 176.027 92.014L173.66 92.1836L173.491 95.9069Z" stroke="#263238" stroke-linecap="round" stroke-linejoin="round"/>
<path d="M162.287 106.085C162.287 106.085 164.153 96.4243 164.492 93.8884C164.831 91.3525 164.492 90.1566 165.849 89.987C168.121 89.9808 170.389 90.151 172.634 90.4959C173.822 90.6655 175.009 90.6655 174.67 92.5314C174.331 94.3973 175.348 98.4683 174.161 99.6472C173.314 100.389 172.233 100.809 171.108 100.835C171.108 100.835 171.786 102.531 169.759 103.549C168.891 104.023 167.983 104.421 167.045 104.736L166.027 107.442L162.287 106.085Z" fill="white"/>
<path opacity="0.1" d="M162.287 106.085C162.287 106.085 164.153 96.4243 164.492 93.8884C164.831 91.3525 164.492 90.1566 165.849 89.987C168.121 89.9808 170.389 90.151 172.634 90.4959C173.822 90.6655 175.009 90.6655 174.67 92.5314C174.331 94.3973 175.348 98.4683 174.161 99.6472C173.314 100.389 172.233 100.809 171.108 100.835C171.108 100.835 171.786 102.531 169.759 103.549C168.891 104.023 167.983 104.421 167.045 104.736L166.027 107.442L162.287 106.085Z" fill="black"/>
<path d="M162.287 106.085C162.287 106.085 164.153 96.4243 164.492 93.8884C164.831 91.3525 164.492 90.1566 165.849 89.987C168.121 89.9808 170.389 90.151 172.634 90.4959C173.822 90.6655 175.009 90.6655 174.67 92.5314C174.331 94.3973 175.348 98.4683 174.161 99.6472C173.314 100.389 172.233 100.809 171.108 100.835C171.108 100.835 171.786 102.531 169.759 103.549C168.891 104.023 167.983 104.421 167.045 104.736L166.027 107.442L162.287 106.085Z" stroke="#263238" stroke-linecap="round" stroke-linejoin="round"/>
<path d="M171.108 100.835L170.768 97.6117L168.563 97.2725" stroke="#263238" stroke-linecap="round" stroke-linejoin="round"/>
<path d="M168.75 94.1767C168.75 94.1767 173.253 94.4057 173.839 94.7534C174.424 95.1012 174.534 98.5531 174.534 98.5531" stroke="#263238" stroke-linecap="round" stroke-linejoin="round"/>
<path d="M168.64 91.9885L174.661 92.5313" stroke="#263238" stroke-linecap="round" stroke-linejoin="round"/>
<path d="M200.419 180.483C189.495 179.389 184.406 176.649 182.668 174.546L181.133 176.463L181.311 177.871C181.311 177.871 160.336 174.699 143.95 176.641C127.564 178.583 117.658 183.511 116.988 189.507L125.47 193.383C137.98 200.787 165.824 202.373 175.509 203.077C185.195 203.781 203.71 203.077 210.758 202.017C217.806 200.957 220.978 197.963 221.682 192.145C222.267 187.344 222.369 179.906 222.386 177.455C219.833 179.321 212.378 181.679 200.419 180.483Z" fill="#263238" stroke="#263238" stroke-linecap="round" stroke-linejoin="round"/>
<path d="M182.015 178.761L192.939 188.455" stroke="white" stroke-linecap="round" stroke-linejoin="round"/>
<path d="M183.779 179.295L191.709 182.289" stroke="white" stroke-linecap="round" stroke-linejoin="round"/>
<path d="M145.18 138.797C145.18 138.797 131.61 143.199 127.369 148.975L110.78 119.519C118.965 117.423 127.427 116.622 135.859 117.144C148.903 118.162 157.546 127.322 161.108 133.259L145.18 138.797Z" fill="white" stroke="#263238" stroke-linecap="round" stroke-linejoin="round"/>
<path d="M123.621 122.42L131.975 137.737" stroke="#263238" stroke-linecap="round" stroke-linejoin="round"/>
<path d="M131.627 121.029L138.938 134.955" stroke="#263238" stroke-linecap="round" stroke-linejoin="round"/>
<path d="M139.642 120.681L145.91 132.869" stroke="#263238" stroke-linecap="round" stroke-linejoin="round"/>
<path d="M201.606 118.119C201.606 118.119 199.741 122.861 200.08 125.753C200.419 128.645 201.437 147.618 201.437 147.618C201.437 147.618 186.018 146.6 179.911 144.395C173.805 142.19 168.563 139.645 168.563 139.645L167.206 145.073C167.206 145.073 178.054 154.733 187.205 158.457C196.357 162.18 213.972 165.742 216.042 164.894C218.111 164.046 219.943 145.243 219.774 137.957C219.604 130.672 219.943 122.869 216.551 117.449" fill="white"/>
<path d="M201.606 118.119C201.606 118.119 199.741 122.861 200.08 125.753C200.419 128.645 201.437 147.618 201.437 147.618C201.437 147.618 186.018 146.6 179.911 144.395C173.805 142.19 168.563 139.645 168.563 139.645L167.206 145.073C167.206 145.073 178.054 154.733 187.205 158.457C196.357 162.18 213.972 165.742 216.042 164.894C218.111 164.046 219.943 145.243 219.774 137.957C219.604 130.672 219.943 122.869 216.551 117.449" stroke="#263238" stroke-linecap="round" stroke-linejoin="round"/>
<path d="M172.303 141.443L170.904 147.974" stroke="#263238" stroke-linecap="round" stroke-linejoin="round"/>
<path d="M201.437 147.609C201.437 147.609 205.499 152.52 207.705 153.877L201.437 147.609Z" fill="white"/>
<path d="M201.437 147.609C201.437 147.609 205.499 152.52 207.705 153.877" stroke="#263238" stroke-linecap="round" stroke-linejoin="round"/>
<path d="M168.563 139.637C166.568 138.348 164.744 136.812 163.135 135.065C160.938 132.521 159.581 132.521 156.528 132.351C153.475 132.182 150.26 129.476 149.412 129.646C148.564 129.815 148.395 131.342 149.243 132.19C150.091 133.038 154.332 135.243 154.332 135.243L145.189 138.806C145.65 139.33 146.232 139.735 146.885 139.984C148.072 140.493 149.26 139.984 149.769 140.493C150.277 141.002 153.331 142.02 155.188 142.698C157.046 143.377 163.152 142.359 163.152 142.359L167.223 145.073L168.563 139.637Z" fill="white"/>
<path opacity="0.1" d="M168.563 139.637C166.568 138.348 164.744 136.812 163.135 135.065C160.938 132.521 159.581 132.521 156.528 132.351C153.475 132.182 150.26 129.476 149.412 129.646C148.564 129.815 148.395 131.342 149.243 132.19C150.091 133.038 154.332 135.243 154.332 135.243L145.189 138.806C145.65 139.33 146.232 139.735 146.885 139.984C148.072 140.493 149.26 139.984 149.769 140.493C150.277 141.002 153.331 142.02 155.188 142.698C157.046 143.377 163.152 142.359 163.152 142.359L167.223 145.073L168.563 139.637Z" fill="black"/>
<path d="M168.563 139.637C166.568 138.348 164.744 136.812 163.135 135.065C160.938 132.521 159.581 132.521 156.528 132.351C153.475 132.182 150.26 129.476 149.412 129.646C148.564 129.815 148.395 131.342 149.243 132.19C150.091 133.038 154.332 135.243 154.332 135.243L145.189 138.806C145.65 139.33 146.232 139.735 146.885 139.984C148.072 140.493 149.26 139.984 149.769 140.493C150.277 141.002 153.331 142.02 155.188 142.698C157.046 143.377 163.152 142.359 163.152 142.359L167.223 145.073L168.563 139.637Z" stroke="#263238" stroke-linecap="round" stroke-linejoin="round"/>
<path d="M160.107 205.18C161.633 208.674 162.42 212.445 162.42 216.257C162.42 220.069 161.633 223.84 160.107 227.334H238.348C238.348 227.334 247.999 224.942 247.999 216.206C247.999 216.206 246.346 208.429 238.568 205.367L160.107 205.18Z" fill="white" stroke="#263238" stroke-linecap="round" stroke-linejoin="round"/>
<path opacity="0.25" d="M242.062 207.029C238.67 205.18 235.54 205.375 231.613 205.333H224.218L204.957 205.274L167.52 205.18C166.909 205.18 160.837 205.681 160.574 205.18C161.247 206.633 161.762 208.155 162.109 209.718H240.239V226.63C242.411 225.843 244.304 224.436 245.684 222.583C247.063 220.73 247.868 218.513 247.999 216.206C248.322 212.364 245.904 209.362 242.8 207.436C242.571 207.301 242.334 207.157 242.062 207.029Z" fill="black"/>
<path d="M240.256 207.666V225.078" stroke="#263238" stroke-linecap="round" stroke-linejoin="round"/>
<path d="M162.236 210.566H174.246" stroke="#263238" stroke-linecap="round" stroke-linejoin="round"/>
<path d="M166.002 212.22H179.436" stroke="#263238" stroke-linecap="round" stroke-linejoin="round"/>
<path d="M162.228 220.235H184.618" stroke="#263238" stroke-linecap="round" stroke-linejoin="round"/>
<path d="M240.001 211.508H229.866" stroke="#263238" stroke-linecap="round" stroke-linejoin="round"/>
<path d="M239.527 214.34H217.373" stroke="#263238" stroke-linecap="round" stroke-linejoin="round"/>
<path d="M215.015 214.34H207.476" stroke="#263238" stroke-linecap="round" stroke-linejoin="round"/>
<path d="M226.092 219.056H240.002" stroke="#263238" stroke-linecap="round" stroke-linejoin="round"/>
<path d="M161.761 223.297H170.717" stroke="#263238" stroke-linecap="round" stroke-linejoin="round"/>
<path d="M235.405 230.362H156.808C156.487 230.381 156.166 230.334 155.863 230.225C155.561 230.115 155.284 229.945 155.05 229.724C154.816 229.504 154.63 229.238 154.502 228.943C154.375 228.648 154.309 228.329 154.309 228.008C154.309 227.686 154.375 227.368 154.502 227.073C154.63 226.778 154.816 226.512 155.05 226.291C155.284 226.071 155.561 225.901 155.863 225.791C156.166 225.682 156.487 225.635 156.808 225.654H235.405C240.799 225.654 245.184 221.583 245.184 216.579C245.184 211.575 240.799 207.504 235.405 207.504H157.512C156.887 207.504 156.287 207.256 155.845 206.814C155.403 206.372 155.154 205.772 155.154 205.147C155.154 204.521 155.403 203.921 155.845 203.479C156.287 203.037 156.887 202.789 157.512 202.789H235.405C243.394 202.789 249.899 208.98 249.899 216.579C249.899 224.179 243.394 230.362 235.405 230.362Z" fill="#263238"/>
<path d="M244.242 232.49C242.716 235.984 241.929 239.755 241.929 243.567C241.929 247.379 242.716 251.15 244.242 254.644H166.002C166.002 254.644 156.342 252.286 156.342 243.567C156.342 243.567 157.987 235.79 165.764 232.719L244.242 232.49Z" fill="white" stroke="#263238" stroke-linecap="round" stroke-linejoin="round"/>
<path opacity="0.25" d="M162.262 234.365C165.654 232.516 168.792 232.668 172.711 232.668H180.106L199.367 232.609L236.829 232.499C237.44 232.499 243.513 232.999 243.784 232.499C243.104 233.95 242.586 235.471 242.241 237.036H164.111V253.94C161.944 253.161 160.053 251.764 158.672 249.922C157.292 248.08 156.481 245.873 156.342 243.575C156.011 239.733 158.428 236.723 161.541 234.797C161.778 234.636 162.024 234.5 162.262 234.365Z" fill="black"/>
<path d="M163.882 236.222V251.523" stroke="#263238" stroke-linecap="round" stroke-linejoin="round"/>
<path d="M242.122 237.91H230.104" stroke="#263238" stroke-linecap="round" stroke-linejoin="round"/>
<path d="M238.348 239.555H224.922" stroke="#263238" stroke-linecap="round" stroke-linejoin="round"/>
<path d="M242.122 247.57H219.731" stroke="#263238" stroke-linecap="round" stroke-linejoin="round"/>
<path d="M164.348 238.851H174.483" stroke="#263238" stroke-linecap="round" stroke-linejoin="round"/>
<path d="M164.823 241.676H186.976" stroke="#263238" stroke-linecap="round" stroke-linejoin="round"/>
<path d="M189.334 241.676H196.874" stroke="#263238" stroke-linecap="round" stroke-linejoin="round"/>
<path d="M178.257 246.391H164.348" stroke="#263238" stroke-linecap="round" stroke-linejoin="round"/>
<path d="M242.597 250.632H233.641" stroke="#263238" stroke-linecap="round" stroke-linejoin="round"/>
<path d="M168.945 257.705H247.541C248.167 257.705 248.766 257.457 249.209 257.015C249.651 256.573 249.899 255.973 249.899 255.348C249.899 254.722 249.651 254.122 249.209 253.68C248.766 253.238 248.167 252.99 247.541 252.99H168.945C163.551 252.99 159.166 248.919 159.166 243.915C159.166 238.911 163.551 234.84 168.945 234.84H246.837C247.158 234.859 247.48 234.812 247.782 234.703C248.085 234.593 248.361 234.423 248.595 234.203C248.829 233.982 249.016 233.716 249.143 233.421C249.271 233.126 249.337 232.808 249.337 232.486C249.337 232.165 249.271 231.846 249.143 231.551C249.016 231.256 248.829 230.99 248.595 230.77C248.361 230.549 248.085 230.379 247.782 230.269C247.48 230.16 247.158 230.113 246.837 230.133H168.945C160.955 230.133 154.45 236.315 154.45 243.915C154.45 251.514 160.955 257.705 168.945 257.705Z" fill="#C53F3F" stroke="#263238" stroke-linecap="round" stroke-linejoin="round"/>
<path d="M160.107 259.953C161.633 263.446 162.42 267.217 162.42 271.03C162.42 274.842 161.633 278.613 160.107 282.106H238.348C238.348 282.106 248.016 279.748 248.016 271.03C248.016 271.03 246.362 263.252 238.585 260.182L160.107 259.953Z" fill="white" stroke="#263238" stroke-linecap="round" stroke-linejoin="round"/>
<path opacity="0.25" d="M242.062 261.827C238.67 259.978 235.54 260.131 231.613 260.131H224.218L204.957 260.08L167.495 259.961C166.884 259.961 160.811 260.47 160.548 259.961C161.223 261.414 161.738 262.935 162.083 264.499H240.214V281.402C242.383 280.624 244.277 279.226 245.661 277.383C247.045 275.539 247.858 273.33 247.999 271.03C248.322 267.188 245.905 264.185 242.8 262.251C242.571 262.099 242.334 262.005 242.062 261.827Z" fill="black"/>
<path d="M240.256 262.463V279.884" stroke="#263238" stroke-linecap="round" stroke-linejoin="round"/>
<path d="M162.236 265.372H174.246" stroke="#263238" stroke-linecap="round" stroke-linejoin="round"/>
<path d="M166.002 267.018H179.436" stroke="#263238" stroke-linecap="round" stroke-linejoin="round"/>
<path d="M162.228 275.033H184.618" stroke="#263238" stroke-linecap="round" stroke-linejoin="round"/>
<path d="M240.001 266.314H229.866" stroke="#263238" stroke-linecap="round" stroke-linejoin="round"/>
<path d="M239.527 269.138H217.373" stroke="#263238" stroke-linecap="round" stroke-linejoin="round"/>
<path d="M215.015 269.138H207.476" stroke="#263238" stroke-linecap="round" stroke-linejoin="round"/>
<path d="M226.092 273.854H240.002" stroke="#263238" stroke-linecap="round" stroke-linejoin="round"/>
<path d="M161.761 278.094H170.717" stroke="#263238" stroke-linecap="round" stroke-linejoin="round"/>
<path d="M235.405 285.168H156.808C156.183 285.168 155.583 284.92 155.141 284.477C154.699 284.035 154.45 283.435 154.45 282.81C154.45 282.185 154.699 281.585 155.141 281.143C155.583 280.701 156.183 280.452 156.808 280.452H235.405C240.799 280.452 245.184 276.381 245.184 271.377C245.184 266.373 240.799 262.311 235.405 262.311H157.512C156.887 262.311 156.287 262.062 155.845 261.62C155.403 261.178 155.154 260.578 155.154 259.953C155.154 259.328 155.403 258.728 155.845 258.286C156.287 257.844 156.887 257.595 157.512 257.595H235.405C243.394 257.595 249.899 263.778 249.899 271.377C249.899 278.977 243.394 285.168 235.405 285.168Z" fill="#263238"/>
<path d="M244.242 287.288C242.717 290.782 241.93 294.553 241.93 298.365C241.93 302.177 242.717 305.948 244.242 309.441H166.002C166.002 309.441 156.342 307.084 156.342 298.365C156.342 298.365 157.987 290.587 165.764 287.526L244.242 287.288Z" fill="white" stroke="#263238" stroke-linecap="round" stroke-linejoin="round"/>
<path opacity="0.25" d="M162.262 289.146C165.654 287.297 168.792 287.492 172.711 287.449H180.106L199.367 287.39L236.829 287.28C237.44 287.28 243.513 287.78 243.784 287.28C243.106 288.731 242.588 290.253 242.241 291.817H164.111V308.738C161.943 307.957 160.052 306.559 158.672 304.715C157.291 302.872 156.481 300.664 156.342 298.365C156.011 294.523 158.428 291.52 161.541 289.587C161.778 289.434 162.024 289.298 162.262 289.146Z" fill="black"/>
<path d="M163.882 291.02V306.32" stroke="#263238" stroke-linecap="round" stroke-linejoin="round"/>
<path d="M242.122 292.708H230.104" stroke="#263238" stroke-linecap="round" stroke-linejoin="round"/>
<path d="M238.348 294.362H224.922" stroke="#263238" stroke-linecap="round" stroke-linejoin="round"/>
<path d="M242.122 302.368H219.731" stroke="#263238" stroke-linecap="round" stroke-linejoin="round"/>
<path d="M164.348 293.649H174.483" stroke="#263238" stroke-linecap="round" stroke-linejoin="round"/>
<path d="M164.823 296.482H186.976" stroke="#263238" stroke-linecap="round" stroke-linejoin="round"/>
<path d="M189.334 296.482H196.874" stroke="#263238" stroke-linecap="round" stroke-linejoin="round"/>
<path d="M178.257 301.189H164.348" stroke="#263238" stroke-linecap="round" stroke-linejoin="round"/>
<path d="M242.597 305.438H233.641" stroke="#263238" stroke-linecap="round" stroke-linejoin="round"/>
<path d="M168.945 312.503H247.541C248.167 312.503 248.766 312.255 249.209 311.813C249.651 311.37 249.899 310.771 249.899 310.145C249.899 309.52 249.651 308.92 249.209 308.478C248.766 308.036 248.167 307.788 247.541 307.788H168.945C163.551 307.788 159.166 303.725 159.166 298.721C159.166 293.717 163.551 289.646 168.945 289.646H246.837C247.463 289.646 248.063 289.398 248.505 288.955C248.947 288.513 249.195 287.914 249.195 287.288C249.195 286.663 248.947 286.063 248.505 285.621C248.063 285.179 247.463 284.93 246.837 284.93H168.945C160.955 284.93 154.45 291.113 154.45 298.721C154.45 306.329 160.955 312.503 168.945 312.503Z" fill="#C53F3F" stroke="#263238" stroke-linecap="round" stroke-linejoin="round"/>
<path d="M282.205 191.534C284.087 192.382 288.693 192.255 288.701 192.255C288.71 192.255 287.709 189.235 287.624 189.057C286.606 186.937 283.384 183.443 280.839 183.799C280.409 183.869 279.998 184.029 279.633 184.268C279.268 184.508 278.958 184.821 278.723 185.189C278.488 185.556 278.333 185.969 278.268 186.4C278.203 186.831 278.229 187.272 278.346 187.692C278.744 189.49 280.602 190.83 282.205 191.534Z" fill="#263238"/>
<path d="M342.566 175.852C339.954 175.564 336.858 179.143 335.9 181.288C335.815 181.475 334.865 184.511 334.908 184.511H334.967C334.475 185.071 333.949 185.682 333.389 186.352C332.372 187.607 331.227 189.04 330.09 190.669C328.853 192.421 327.721 194.245 326.698 196.131C325.532 198.235 324.553 200.437 323.772 202.712C323.772 202.712 323.772 202.763 323.772 202.797C323.772 202.025 323.772 199.871 323.772 199.71C323.466 197.386 321.516 193.069 318.937 192.594C318.507 192.526 318.067 192.549 317.646 192.662C317.225 192.775 316.833 192.976 316.495 193.252C316.157 193.527 315.881 193.871 315.685 194.26C315.489 194.65 315.378 195.076 315.358 195.512C315.205 197.361 316.546 199.21 317.852 200.371C319.319 201.695 323.407 202.967 323.738 203.069C323.013 205.402 322.446 207.783 322.041 210.193C321.787 211.601 321.583 213.026 321.388 214.434C321.388 213.772 321.388 213.178 321.388 213.093C321.092 210.77 319.141 206.453 316.562 205.978C316.132 205.909 315.691 205.932 315.27 206.046C314.848 206.159 314.456 206.36 314.117 206.635C313.778 206.91 313.502 207.254 313.305 207.643C313.108 208.033 312.996 208.459 312.975 208.895C312.822 210.744 314.162 212.593 315.468 213.764C316.775 214.934 320.26 216.096 321.176 216.393L320.973 218.038C320.659 220.676 320.354 223.305 319.98 225.875C319.845 226.782 319.684 227.673 319.522 228.555C319.522 227.97 319.522 227.469 319.522 227.393C319.226 225.069 317.275 220.752 314.697 220.277C314.266 220.209 313.825 220.232 313.404 220.345C312.982 220.458 312.59 220.659 312.251 220.935C311.913 221.21 311.636 221.553 311.439 221.943C311.242 222.332 311.13 222.759 311.109 223.195C310.956 225.044 312.296 226.893 313.602 228.063C314.909 229.233 318.055 230.285 319.149 230.607C318.954 231.515 318.768 232.414 318.539 233.288C318.369 233.873 318.25 234.458 318.047 235.035C317.843 235.611 317.674 236.197 317.495 236.731C317.097 237.817 316.698 238.936 316.283 239.979C316.003 240.717 315.723 241.404 315.434 242.1C315.579 241.201 315.816 239.437 315.825 239.284C315.795 237.221 315.237 235.201 314.205 233.415C314.226 233.186 314.226 232.956 314.205 232.728C314.15 232.295 314.004 231.879 313.778 231.506C313.552 231.133 313.25 230.812 312.892 230.563C312.534 230.315 312.127 230.144 311.699 230.062C311.27 229.981 310.83 229.99 310.405 230.09C307.861 230.769 306.258 235.179 306.164 237.562C306.164 237.698 306.249 239.208 306.317 240.157C306.19 239.606 306.071 239.072 305.935 238.504C305.672 237.376 305.367 236.264 305.087 235.069L304.561 233.372C304.4 232.796 304.154 232.193 303.951 231.6C303.45 230.226 302.874 228.86 302.254 227.503C303.238 227.266 306.716 226.375 308.107 225.307C309.498 224.238 310.973 222.499 310.956 220.642C310.969 220.202 310.888 219.765 310.719 219.359C310.55 218.953 310.297 218.588 309.977 218.287C309.656 217.987 309.275 217.758 308.859 217.615C308.443 217.473 308.002 217.42 307.564 217.461C304.96 217.75 302.695 221.906 302.221 224.246C302.221 224.391 302.034 226.07 301.966 227.003C301.593 226.155 301.228 225.366 300.821 224.552C299.659 222.202 298.404 219.862 297.157 217.521L295.792 215.358C296.139 215.282 300.295 214.315 301.856 213.11C303.247 212.05 304.723 210.303 304.706 208.454C304.718 208.015 304.638 207.578 304.469 207.172C304.3 206.766 304.047 206.4 303.726 206.1C303.405 205.799 303.024 205.57 302.608 205.428C302.192 205.285 301.751 205.233 301.313 205.274C298.709 205.554 296.445 209.709 295.97 212.008C295.97 212.178 295.715 214.603 295.69 215.222C294.842 213.645 294.062 212.059 293.332 210.464C292.34 208.317 291.49 206.107 290.788 203.849C290.949 203.806 295.291 202.823 296.886 201.593C298.277 200.533 299.752 198.785 299.736 196.937C299.749 196.501 299.67 196.067 299.504 195.663C299.338 195.26 299.089 194.896 298.773 194.596C298.456 194.296 298.08 194.066 297.669 193.921C297.257 193.776 296.82 193.72 296.385 193.756C293.773 194.036 291.509 198.192 291.034 200.49C291.034 200.668 290.762 203.281 290.754 203.756L290.618 203.365C289.974 201.079 289.528 198.74 289.287 196.377C289.142 195.071 289.074 193.832 289.041 192.594C289.889 192.492 293.637 191.992 295.206 191.042C296.776 190.092 298.362 188.565 298.548 186.725C298.608 186.293 298.576 185.853 298.454 185.433C298.333 185.014 298.125 184.625 297.843 184.292C297.562 183.958 297.213 183.688 296.82 183.497C296.427 183.307 295.999 183.202 295.563 183.188C292.933 183.188 290.228 187.073 289.507 189.303C289.507 189.422 289.202 190.703 289.024 191.636C289.024 191.084 289.024 190.508 289.024 189.939C289.024 187.955 289.151 186.14 289.278 184.528C289.354 183.612 289.448 182.832 289.532 181.984C290.296 181.458 293.332 179.321 294.265 177.786C295.198 176.251 295.919 174.13 295.24 172.409C295.095 172.001 294.866 171.629 294.568 171.316C294.269 171.003 293.909 170.756 293.509 170.59C293.11 170.425 292.68 170.345 292.248 170.356C291.816 170.367 291.39 170.468 291 170.653C288.667 171.857 288.057 176.59 288.455 178.863C288.455 179.066 289.371 182.128 289.414 182.103H289.456C289.354 182.849 289.253 183.638 289.159 184.511C288.998 186.123 288.837 187.904 288.786 189.931C288.713 192.078 288.764 194.227 288.939 196.368C289.125 198.768 289.525 201.147 290.135 203.476V203.56C289.719 202.907 288.506 201.135 288.396 201.016C286.861 199.243 282.858 196.716 280.44 197.742C280.044 197.925 279.69 198.188 279.403 198.516C279.115 198.844 278.899 199.229 278.769 199.646C278.64 200.062 278.599 200.502 278.651 200.935C278.702 201.368 278.843 201.786 279.067 202.161C279.957 203.781 282.094 204.587 283.825 204.841C285.784 205.121 289.897 203.934 290.219 203.832C290.897 206.186 291.73 208.492 292.713 210.736C293.281 212.05 293.892 213.348 294.519 214.646C294.146 214.094 293.807 213.611 293.748 213.543C292.213 211.77 288.209 209.251 285.792 210.278C285.396 210.459 285.043 210.722 284.755 211.049C284.467 211.376 284.251 211.76 284.122 212.176C283.992 212.592 283.951 213.031 284.003 213.464C284.054 213.896 284.195 214.314 284.418 214.688C285.309 216.308 287.446 217.114 289.176 217.368C290.906 217.623 294.46 216.681 295.393 216.418L296.131 217.902C297.318 220.269 298.523 222.635 299.625 224.984C300.015 225.832 300.363 226.681 300.719 227.478C300.389 226.986 300.109 226.579 300.058 226.519C298.523 224.747 294.511 222.219 292.094 223.246C291.697 223.428 291.344 223.692 291.056 224.02C290.768 224.348 290.552 224.732 290.423 225.149C290.293 225.566 290.253 226.005 290.304 226.438C290.355 226.872 290.497 227.289 290.72 227.664C291.61 229.284 293.748 230.09 295.486 230.345C297.225 230.599 300.422 229.742 301.534 229.437C301.873 230.285 302.212 231.133 302.5 231.981C302.687 232.567 302.908 233.118 303.06 233.678C303.213 234.237 303.382 234.848 303.544 235.425C303.815 236.544 304.103 237.706 304.332 238.817C304.502 239.589 304.655 240.319 304.799 241.056C304.426 240.208 303.645 238.614 303.569 238.512C302.322 236.527 298.743 233.423 296.199 234.076C295.779 234.196 295.389 234.402 295.055 234.682C294.72 234.962 294.448 235.309 294.257 235.702C294.066 236.094 293.959 236.522 293.945 236.958C293.93 237.394 294.007 237.828 294.172 238.232C294.808 239.928 296.801 241.09 298.472 241.625C300.312 242.193 304.409 241.676 304.909 241.625C305.155 242.846 305.376 244.033 305.571 245.161C306.258 249.054 306.682 252.328 306.953 254.618C306.953 255.025 307.038 255.39 307.072 255.738H299.142L302.025 312.045H315.485L318.369 255.755H311.016C311.067 255.636 311.117 255.534 311.177 255.415C312.186 253.312 313.586 250.284 315.095 246.586C315.579 245.416 316.071 244.161 316.562 242.863C317.054 242.965 321.1 243.787 322.983 243.363C324.679 242.973 326.757 242.006 327.52 240.319C327.714 239.929 327.824 239.503 327.842 239.068C327.861 238.634 327.788 238.2 327.628 237.795C327.468 237.39 327.225 237.024 326.914 236.719C326.603 236.415 326.232 236.179 325.824 236.027C323.331 235.179 319.539 238.02 318.14 239.903C318.064 240.013 317.292 241.319 316.842 242.151C317.037 241.625 317.241 241.107 317.436 240.565C317.835 239.479 318.199 238.385 318.59 237.172C318.768 236.595 318.937 236.019 319.115 235.476C319.293 234.933 319.421 234.263 319.582 233.661C319.921 232.236 320.192 230.777 320.43 229.31C321.38 229.649 324.764 230.828 326.52 230.709C328.275 230.59 330.455 229.946 331.464 228.385C331.715 228.028 331.888 227.623 331.971 227.195C332.054 226.766 332.047 226.326 331.948 225.901C331.85 225.476 331.663 225.076 331.4 224.728C331.137 224.381 330.803 224.092 330.421 223.882C328.089 222.677 323.907 224.9 322.245 226.553C322.143 226.655 321.083 227.978 320.549 228.716C320.684 227.826 320.829 226.944 320.947 226.045C321.27 223.441 321.516 220.795 321.795 218.157C321.872 217.351 321.965 216.545 322.05 215.74C322.381 215.867 326.375 217.351 328.343 217.215C330.09 217.088 332.278 216.452 333.296 214.9C333.547 214.543 333.719 214.136 333.801 213.708C333.884 213.279 333.876 212.838 333.776 212.413C333.677 211.988 333.489 211.589 333.226 211.242C332.962 210.894 332.627 210.606 332.244 210.396C329.912 209.192 325.731 211.406 324.068 213.06C323.941 213.187 322.423 215.087 322.058 215.604C322.245 213.831 322.449 212.067 322.72 210.337C323.074 207.994 323.581 205.676 324.238 203.399C324.391 203.459 328.555 205.036 330.565 204.892C332.312 204.773 334.509 204.129 335.518 202.577C335.769 202.22 335.942 201.814 336.025 201.386C336.108 200.958 336.101 200.517 336.002 200.092C335.904 199.667 335.717 199.268 335.454 198.92C335.191 198.572 334.857 198.283 334.475 198.073C332.143 196.869 327.961 199.082 326.299 200.736C326.163 200.872 324.526 202.916 324.264 203.281C324.264 203.153 324.323 203.009 324.365 202.882C325.084 200.616 326.003 198.419 327.113 196.317C327.707 195.155 328.343 194.07 328.988 193.027C329.734 193.4 333.16 195.062 334.984 195.139C336.807 195.215 338.979 194.808 340.158 193.374C340.445 193.047 340.661 192.663 340.791 192.247C340.92 191.831 340.961 191.392 340.91 190.959C340.859 190.526 340.717 190.109 340.494 189.735C340.271 189.36 339.971 189.037 339.615 188.786C337.427 187.336 333.025 189.074 331.193 190.542C331.091 190.618 330.167 191.542 329.497 192.238C329.793 191.771 330.09 191.288 330.387 190.847C331.481 189.193 332.592 187.743 333.585 186.471C334.153 185.75 334.679 185.114 335.179 184.52C336.103 184.52 339.818 184.393 341.447 183.629C343.075 182.866 344.839 181.492 345.221 179.686C345.329 179.257 345.344 178.811 345.265 178.376C345.187 177.942 345.016 177.529 344.764 177.166C344.513 176.803 344.187 176.498 343.808 176.271C343.428 176.044 343.005 175.901 342.566 175.852ZM313.662 245.976C312.084 249.614 310.634 252.574 309.591 254.635C309.379 255.042 309.192 255.415 309.023 255.755H308.844C308.794 255.348 308.734 254.906 308.666 254.415C308.353 252.108 307.818 248.808 307.072 244.89C306.826 243.652 306.538 242.346 306.224 240.98C307.453 240.482 308.654 239.916 309.82 239.284C311.16 240.734 314.603 242.439 315.053 242.676C314.586 243.813 314.154 244.932 313.662 245.976Z" fill="#263238"/>
<path d="M328.81 192.543C328.852 192.543 329.658 189.481 329.658 189.286C329.98 186.963 329.234 182.289 326.876 181.144C326.477 180.964 326.045 180.87 325.607 180.869C325.17 180.867 324.737 180.958 324.337 181.134C323.937 181.311 323.578 181.57 323.285 181.895C322.992 182.22 322.77 182.603 322.635 183.019C321.999 184.757 322.805 186.895 323.755 188.362C324.908 190.092 328.81 192.543 328.81 192.543Z" fill="#263238"/>
<path d="M7.12952 312.503H342.142" stroke="#263238" stroke-width="2" stroke-linecap="round" stroke-linejoin="round"/>
</svg>
